<?xml version="1.0" encoding="UTF-8" standalone="no"?>
<!-- Created with Inkscape (http://www.inkscape.org/) -->

<svg
   width="293.20065mm"
   height="145.49077mm"
   viewBox="0 0 293.20065 145.49077"
   version="1.1"
   id="svg758"
   inkscape:version="1.2.2 (732a01da63, 2022-12-09, custom)"
   sodipodi:docname="skorch_torch_sklearn_eco_2.svg"
   xml:space="preserve"
   xmlns:inkscape="http://www.inkscape.org/namespaces/inkscape"
   xmlns:sodipodi="http://sodipodi.sourceforge.net/DTD/sodipodi-0.dtd"
   xmlns:xlink="http://www.w3.org/1999/xlink"
   xmlns="http://www.w3.org/2000/svg"
   xmlns:svg="http://www.w3.org/2000/svg"><sodipodi:namedview
     id="namedview760"
     pagecolor="#ffffff"
     bordercolor="#666666"
     borderopacity="1.0"
     inkscape:showpageshadow="2"
     inkscape:pageopacity="0.0"
     inkscape:pagecheckerboard="0"
     inkscape:deskcolor="#d1d1d1"
     inkscape:document-units="mm"
     showgrid="false"
     inkscape:zoom="1.829812"
     inkscape:cx="600.06164"
     inkscape:cy="357.14051"
     inkscape:window-width="2490"
     inkscape:window-height="1376"
     inkscape:window-x="70"
     inkscape:window-y="27"
     inkscape:window-maximized="1"
     inkscape:current-layer="layer1" /><defs
     id="defs755"><marker
       style="overflow:visible"
       id="marker14884"
       refX="0"
       refY="0"
       orient="auto-start-reverse"
       inkscape:stockid="Arrow1L"
       markerWidth="8.75"
       markerHeight="5"
       viewBox="0 0 8.75 5"
       inkscape:isstock="true"
       inkscape:collect="always"
       preserveAspectRatio="xMidYMid"><path
         style="fill:context-stroke;fill-rule:evenodd;stroke:none"
         d="M 0,0 5,-5 -12.5,0 5,5 Z"
         id="path14882"
         transform="scale(-0.5)" /></marker><marker
       style="overflow:visible"
       id="marker2488"
       refX="0"
       refY="0"
       orient="auto-start-reverse"
       inkscape:stockid="Arrow2"
       markerWidth="7.6999998"
       markerHeight="5.5999999"
       viewBox="0 0 7.7 5.6"
       inkscape:isstock="true"
       inkscape:collect="always"
       preserveAspectRatio="xMidYMid"><path
         transform="scale(0.7)"
         d="M -2,-4 9,0 -2,4 c 2,-2.33 2,-5.66 0,-8 z"
         style="fill:context-stroke;fill-rule:evenodd;stroke:none"
         id="path2486" /></marker><rect
       x="211.67232"
       y="488.37704"
       width="211.71861"
       height="52.881889"
       id="rect1548" /><linearGradient
       inkscape:collect="always"
       xlink:href="#linearGradient9515"
       id="linearGradient9521"
       x1="55.549179"
       y1="77.070274"
       x2="110.14919"
       y2="131.85291"
       gradientUnits="userSpaceOnUse" /><linearGradient
       inkscape:collect="always"
       id="linearGradient9515"><stop
         style="stop-color:#387eb8;stop-opacity:1"
         offset="0"
         id="stop9517" /><stop
         style="stop-color:#366994;stop-opacity:1"
         offset="1"
         id="stop9519" /></linearGradient><linearGradient
       inkscape:collect="always"
       xlink:href="#linearGradient11301"
       id="linearGradient11307"
       x1="89.136749"
       y1="111.92053"
       x2="147.77737"
       y2="168.1012"
       gradientUnits="userSpaceOnUse" /><linearGradient
       inkscape:collect="always"
       id="linearGradient11301"><stop
         style="stop-color:#ffe052;stop-opacity:1"
         offset="0"
         id="stop11303" /><stop
         style="stop-color:#ffc331;stop-opacity:1"
         offset="1"
         id="stop11305" /></linearGradient></defs><g
     inkscape:groupmode="layer"
     id="layer4"
     inkscape:label="bg"
     transform="translate(47.734806,-17.522518)"><rect
       style="fill:#eee8d5;fill-opacity:1;stroke:none;stroke-width:0.499999;stroke-miterlimit:5;stroke-dasharray:none"
       id="rect17187"
       width="293.20065"
       height="145.49077"
       x="-47.734806"
       y="17.522518"
       ry="5.6017499" /></g><g
     inkscape:label="Layer 1"
     inkscape:groupmode="layer"
     id="layer1"
     transform="translate(47.734806,-17.522518)"><text
       xml:space="preserve"
       transform="scale(0.26458333)"
       id="text1546"
       style="font-style:italic;font-size:16px;line-height:1.25;font-family:sans-serif;-inkscape-font-specification:'sans-serif Italic';letter-spacing:0px;word-spacing:0px;white-space:pre;shape-inside:url(#rect1548);display:inline" /><rect
       style="fill:#2fc937;fill-opacity:0;stroke:none;stroke-width:0.264999;stroke-miterlimit:5"
       id="rect14686"
       width="24.110779"
       height="28.100538"
       x="223.25337"
       y="111.61678"
       ry="5.6017499" /><rect
       style="fill:#f89939;fill-opacity:1;stroke:none;stroke-width:0.264999;stroke-miterlimit:5"
       id="rect11932"
       width="115.69891"
       height="136.71179"
       x="41.016064"
       y="22.119017"
       ry="5.6017499" /><rect
       style="fill:#3bd3d8;fill-opacity:1;stroke:none;stroke-width:0.264999;stroke-miterlimit:5"
       id="rect12814"
       width="103.33501"
       height="111.08624"
       x="47.198017"
       y="42.977886"
       ry="5.6017499" /><text
       xml:space="preserve"
       style="font-style:normal;font-size:4.23333px;line-height:1.25;font-family:sans-serif;-inkscape-font-specification:sans-serif;letter-spacing:0px;word-spacing:0px;stroke-width:0.264583;font-weight:normal;font-stretch:normal;font-variant:normal"
       x="48.775322"
       y="28.61035"
       id="text14322"><tspan
         sodipodi:role="line"
         id="tspan14316"
         style="stroke-width:0.264583;-inkscape-font-specification:sans-serif;font-family:sans-serif;font-weight:normal;font-style:normal;font-stretch:normal;font-variant:normal"
         x="48.775322"
         y="28.61035">Pipeline</tspan><tspan
         sodipodi:role="line"
         style="stroke-width:0.264583;-inkscape-font-specification:sans-serif;font-family:sans-serif;font-weight:normal;font-style:normal;font-stretch:normal;font-variant:normal"
         x="48.775322"
         y="33.902012"
         id="tspan14318">Grid Search</tspan><tspan
         sodipodi:role="line"
         style="stroke-width:0.264583;-inkscape-font-specification:sans-serif;font-family:sans-serif;font-weight:normal;font-style:normal;font-stretch:normal;font-variant:normal"
         x="48.775322"
         y="39.193672"
         id="tspan14320">cross validation</tspan></text><g
       id="g11765"
       transform="translate(43.716336,-140.39635)"
       style="stroke-linecap:butt;stroke-linejoin:round"><g
         style="stroke-linecap:butt;stroke-linejoin:round"
         transform="matrix(1.0649464,0,0,1.0649464,31.354768,184.76769)"
         id="g11759"><g
           id="g11755"
           inkscape:label="Layer 2"
           style="display:inline;stroke-linecap:butt;stroke-linejoin:round"
           transform="translate(0,-0.64277076)"><path
             inkscape:connector-curvature="0"
             id="path11723"
             style="font-style:normal;font-variant:normal;font-weight:bold;font-stretch:normal;font-size:9.525px;line-height:1.25;font-family:'Proxima Nova';-inkscape-font-specification:'Proxima Nova Bold';letter-spacing:1.60867px;word-spacing:0px;fill:#000000;fill-opacity:1;stroke:none;stroke-width:0.264583;stroke-linecap:butt;stroke-linejoin:round"
             d="m 23.084343,9.9670248 v -6.3531 h 2.97191 q 0.97669,0 1.55805,0.57206 0.58601,0.57206 0.58601,1.47433 0,0.39997 -0.12093,0.73949 -0.12092,0.33951 -0.32556,0.5674 -0.20464,0.22325 -0.44648,0.37207 -0.2372,0.14418 -0.50695,0.20929 l 1.43712,2.41846 h -1.56269 l -1.24644,-2.25568 h -0.99063 v 2.25568 z m 1.35341,-3.4463 h 1.42782 q 0.40927,0 0.67437,-0.23255 0.26975,-0.23719 0.26975,-0.63717 0,-0.38602 -0.26975,-0.61391 -0.2651,-0.23255 -0.67437,-0.23255 h -1.42782 z" /><path
             inkscape:connector-curvature="0"
             id="path11725"
             style="font-style:normal;font-variant:normal;font-weight:bold;font-stretch:normal;font-size:9.525px;line-height:1.25;font-family:'Proxima Nova';-inkscape-font-specification:'Proxima Nova Bold';letter-spacing:1.60867px;word-spacing:0px;fill:#000000;fill-opacity:1;stroke:none;stroke-width:0.264583;stroke-linecap:butt;stroke-linejoin:round"
             d="m 30.51126,6.6788548 q 0,-0.96273 0.44648,-1.71617 0.44649,-0.75345 1.21853,-1.16272 0.77205,-0.40928 1.72548,-0.40928 0.50229,0 0.93017,0.13022 0.43253,0.12558 0.74879,0.35347 0.32091,0.22324 0.55346,0.48834 0.23719,0.26045 0.41393,0.58136 l -1.16272,0.57206 q -0.20464,-0.39997 -0.60927,-0.66042 -0.40462,-0.26045 -0.87436,-0.26045 -0.86972,0 -1.43712,0.59066 -0.56276,0.59066 -0.56276,1.49293 0,0.90227 0.56276,1.49758 0.5674,0.59066 1.43712,0.59066 0.46974,0 0.87436,-0.26044 0.40463,-0.2651 0.60927,-0.66508 l 1.16272,0.56276 q -0.18139,0.32091 -0.41393,0.58601 -0.22789,0.26045 -0.5488,0.48834 -0.32092,0.22789 -0.75345,0.35812 -0.42788,0.13022 -0.93017,0.13022 -0.71159,0 -1.33946,-0.24184 -0.62321,-0.24185 -1.079,-0.66508 -0.45114,-0.42788 -0.71158,-1.0418 -0.26045,-0.61856 -0.26045,-1.33945 z" /><path
             inkscape:connector-curvature="0"
             id="path11727"
             style="font-style:normal;font-variant:normal;font-weight:bold;font-stretch:normal;font-size:9.525px;line-height:1.25;font-family:'Proxima Nova';-inkscape-font-specification:'Proxima Nova Bold';letter-spacing:1.60867px;word-spacing:0px;fill:#000000;fill-opacity:1;stroke:none;stroke-width:0.264583;stroke-linecap:butt;stroke-linejoin:round"
             d="m 38.97067,9.9670248 v -6.3531 h 1.3534 v 2.49752 h 2.99982 v -2.49752 h 1.36271 v 6.3531 h -1.36271 v -2.67426 h -2.99982 v 2.67426 z" /><g
             transform="translate(-130.35908,-125.62714)"
             aria-label="S"
             style="font-style:normal;font-variant:normal;font-weight:normal;font-stretch:normal;font-size:9.525px;line-height:1.25;font-family:'Proxima Nova';-inkscape-font-specification:'Proxima Nova';letter-spacing:1.60867px;word-spacing:0px;fill:#000000;fill-opacity:1;stroke:none;stroke-width:0.264583;stroke-linecap:butt;stroke-linejoin:round"
             id="g11731"><path
               d="m 130.35908,134.58027 0.74414,-1.05575 q 0.36742,0.38602 0.88367,0.62787 0.5209,0.24185 1.13481,0.24185 0.53486,0 0.81856,-0.19999 0.2837,-0.20464 0.2837,-0.50695 0,-0.19534 -0.15813,-0.33486 -0.15813,-0.14418 -0.41393,-0.21859 -0.25579,-0.0791 -0.58601,-0.16278 -0.32556,-0.0884 -0.66972,-0.16278 -0.34417,-0.0791 -0.67438,-0.22325 -0.32556,-0.14882 -0.58136,-0.33951 -0.2558,-0.19534 -0.41393,-0.52555 -0.15813,-0.33021 -0.15813,-0.75809 0,-0.81856 0.65578,-1.37201 0.66042,-0.55811 1.75338,-0.55811 1.52548,0 2.47892,0.88367 l -0.75345,1.00924 q -0.37672,-0.34417 -0.86041,-0.51625 -0.48369,-0.17673 -0.98599,-0.17673 -0.42323,0 -0.66042,0.17208 -0.2372,0.16743 -0.2372,0.45579 0,0.17673 0.15348,0.30696 0.15813,0.13022 0.41393,0.20463 0.26045,0.0698 0.58601,0.15813 0.33021,0.0837 0.66973,0.16278 0.33951,0.0791 0.66507,0.23255 0.33022,0.14883 0.58602,0.34881 0.26044,0.19534 0.41392,0.52555 0.15813,0.33022 0.15813,0.75345 0,0.91157 -0.65577,1.47898 -0.65112,0.56275 -1.88361,0.56275 -1.69292,0 -2.70681,-1.01389 z"
               style="font-style:normal;font-variant:normal;font-weight:bold;font-stretch:normal;font-size:9.525px;font-family:'Proxima Nova';-inkscape-font-specification:'Proxima Nova Bold';letter-spacing:1.60867px;fill:#000000;fill-opacity:1;stroke-width:0.264583;stroke-linecap:butt;stroke-linejoin:round"
               id="path11729"
               inkscape:connector-curvature="0" /></g><g
             transform="translate(-130.35908,-125.51087)"
             aria-label=" K"
             style="font-style:normal;font-variant:normal;font-weight:normal;font-stretch:normal;font-size:9.525px;line-height:1.25;font-family:'Proxima Nova';-inkscape-font-specification:'Proxima Nova';letter-spacing:1.60867px;word-spacing:0px;fill:#000000;fill-opacity:1;stroke:none;stroke-width:0.264583;stroke-linecap:butt;stroke-linejoin:round"
             id="g11735"><path
               d="m 138.0356,135.47789 v -6.3531 h 1.3534 v 2.82773 l 2.24638,-2.82773 h 1.66966 l -2.52542,2.98121 2.69751,3.37189 h -1.66967 l -1.92546,-2.55333 -0.493,0.59996 v 1.95337 z"
               style="font-style:normal;font-variant:normal;font-weight:bold;font-stretch:normal;font-size:9.525px;font-family:'Proxima Nova';-inkscape-font-specification:'Proxima Nova Bold';letter-spacing:1.60867px;fill:#000000;fill-opacity:1;stroke-width:0.264583;stroke-linecap:butt;stroke-linejoin:round"
               id="path11733"
               inkscape:connector-curvature="0" /></g><g
             id="g11753"
             transform="matrix(0.96594955,0,0,0.96594955,0.57872107,0.33938164)"
             style="stroke-width:1.03525;stroke-linecap:butt;stroke-linejoin:round"><g
               transform="translate(-130.29067,-126.22247)"
               id="g11745"
               style="stroke-width:1.03525;stroke-linecap:butt;stroke-linejoin:round"><path
                 style="fill:#f89939;fill-rule:evenodd;stroke:none;stroke-width:0.0135651;stroke-linecap:butt;stroke-linejoin:round"
                 inkscape:connector-curvature="0"
                 d="m 146.58431,132.73293 c -0.44379,0.44377 -0.51755,1.08948 -0.16474,1.44226 0.35277,0.35277 0.99846,0.27901 1.44222,-0.16472 0.44377,-0.44376 0.3154,-1.29157 0.16471,-1.44228 -0.12177,-0.12176 -0.99845,-0.279 -1.44219,0.16474 z"
                 id="path11737" /><path
                 id="path11739"
                 d="m 149.92045,132.73293 c 0.4438,0.44377 0.51756,1.08948 0.16474,1.44226 -0.35277,0.35277 -0.99845,0.27901 -1.44222,-0.16472 -0.44377,-0.44376 -0.31539,-1.29157 -0.16471,-1.44228 0.12177,-0.12176 0.99845,-0.279 1.44219,0.16474 z"
                 inkscape:connector-curvature="0"
                 style="fill:#3499cd;fill-opacity:1;fill-rule:evenodd;stroke:none;stroke-width:0.0135651;stroke-linecap:butt;stroke-linejoin:round" /><path
                 id="path11741"
                 d="m 146.58431,131.9626 c -0.44379,-0.44377 -0.51755,-1.08949 -0.16474,-1.44227 0.35277,-0.35274 0.99846,-0.279 1.44222,0.16475 0.44377,0.44374 0.3154,1.29155 0.16471,1.44226 -0.12177,0.12176 -0.99845,0.279 -1.44219,-0.16474 z"
                 inkscape:connector-curvature="0"
                 style="fill:#3499cd;fill-opacity:1;fill-rule:evenodd;stroke:none;stroke-width:0.0135651;stroke-linecap:butt;stroke-linejoin:round" /><path
                 style="fill:#f89939;fill-rule:evenodd;stroke:none;stroke-width:0.0135651;stroke-linecap:butt;stroke-linejoin:round"
                 inkscape:connector-curvature="0"
                 d="m 149.92045,131.9626 c 0.4438,-0.44377 0.51756,-1.08949 0.16474,-1.44227 -0.35277,-0.35274 -0.99845,-0.279 -1.44222,0.16475 -0.44377,0.44374 -0.31539,1.29155 -0.16471,1.44226 0.12177,0.12176 0.99845,0.279 1.44219,-0.16474 z"
                 id="path11743" /></g><g
               style="stroke-width:0.866594;stroke-linecap:butt;stroke-linejoin:round"
               transform="matrix(0.31607641,0,0,0.31607641,14.042365,0.45312491)"
               id="g11751"><path
                 id="path11747"
                 d="m 21,9.2 -2.2,2.2 c 3.6,3.6 3.6,9.4 0,12.9 -3.6,3.6 -9.4,3.6 -12.9,0 -3.6,-3.6 -3.6,-9.4 0,-12.9 v 0 l 5.7,-5.7 0.8,-0.8 v 0 -4.3 L 3.8,9.2 C -1,14 -1,21.7 3.8,26.5 8.6,31.3 16.3,31.3 21,26.5 25.8,21.7 25.8,14 21,9.2 Z"
                 class="st0"
                 inkscape:connector-curvature="0"
                 style="fill:#ee4c2c;stroke-width:0.866594;stroke-linecap:butt;stroke-linejoin:round" /><circle
                 id="circle11749"
                 r="1.6"
                 cy="7.0999999"
                 cx="16.700001"
                 class="st0"
                 style="fill:#ee4c2c;stroke-width:0.866594;stroke-linecap:butt;stroke-linejoin:round" /></g></g></g><g
           inkscape:label="Layer 1"
           id="g11757"
           transform="translate(-130.35908,-126.39539)"
           style="display:inline;stroke-linecap:butt;stroke-linejoin:round" /></g><text
         id="text11763"
         y="200.57349"
         x="54.442268"
         style="font-style:normal;font-weight:normal;font-size:5.64444px;line-height:1.25;font-family:sans-serif;text-align:center;letter-spacing:0px;word-spacing:0px;text-anchor:middle;fill:#000000;fill-opacity:1;stroke:none;stroke-width:0.264583;stroke-linecap:butt;stroke-linejoin:round"
         xml:space="preserve"><tspan
           style="text-align:center;text-anchor:middle;stroke-width:0.264583;stroke-linecap:butt;stroke-linejoin:round"
           y="200.57349"
           x="54.442268"
           sodipodi:role="line"
           id="tspan11761" /></text></g><g
       id="g14423"
       transform="translate(0,-4.4997781)"><rect
         style="fill:#2aba32;fill-opacity:1;stroke:none;stroke-width:0.264999;stroke-miterlimit:5"
         id="rect14382"
         width="96.721222"
         height="13.261836"
         x="50.50491"
         y="67.975693"
         ry="5.6017499" /><text
         xml:space="preserve"
         style="font-style:normal;font-size:4.23333px;line-height:1.25;font-family:sans-serif;-inkscape-font-specification:sans-serif;letter-spacing:0px;word-spacing:0px;stroke-width:0.264583;font-weight:normal;font-stretch:normal;font-variant:normal"
         x="91.03035"
         y="76.147598"
         id="text14396"><tspan
           sodipodi:role="line"
           id="tspan14394"
           style="stroke-width:0.264583;-inkscape-font-specification:sans-serif;font-family:sans-serif;font-weight:normal;font-style:normal;font-stretch:normal;font-variant:normal"
           x="91.03035"
           y="76.147598">MODEL</tspan></text></g><g
       id="g14413"
       transform="translate(0,-13.499334)"><rect
         style="fill:#2aba32;fill-opacity:1;stroke:none;stroke-width:0.264999;stroke-miterlimit:5"
         id="rect14390"
         width="96.721222"
         height="13.261836"
         x="50.50491"
         y="114.01539"
         ry="5.6017499" /><text
         xml:space="preserve"
         style="font-style:normal;font-size:4.23333px;line-height:1.25;font-family:sans-serif;-inkscape-font-specification:sans-serif;letter-spacing:0px;word-spacing:0px;stroke-width:0.264583;font-weight:normal;font-stretch:normal;font-variant:normal"
         x="86.225479"
         y="122.18729"
         id="text14400"><tspan
           sodipodi:role="line"
           id="tspan14398"
           style="stroke-width:0.264583;-inkscape-font-specification:sans-serif;font-family:sans-serif;font-weight:normal;font-style:normal;font-stretch:normal;font-variant:normal"
           x="86.225479"
           y="122.18729">TRAIN LOOP</tspan></text></g><g
       id="g14418"
       transform="translate(0,-8.9995521)"><rect
         style="fill:#2aba32;fill-opacity:1;stroke:none;stroke-width:0.264999;stroke-miterlimit:5"
         id="rect14388"
         width="96.721222"
         height="13.261836"
         x="50.50491"
         y="90.995537"
         ry="5.6017499" /><text
         xml:space="preserve"
         style="font-style:normal;font-size:4.23333px;line-height:1.25;font-family:sans-serif;-inkscape-font-specification:sans-serif;letter-spacing:0px;word-spacing:0px;stroke-width:0.264583;font-weight:normal;font-stretch:normal;font-variant:normal"
         x="81.425774"
         y="99.167442"
         id="text14404"><tspan
           sodipodi:role="line"
           id="tspan14402"
           style="stroke-width:0.264583;-inkscape-font-specification:sans-serif;font-family:sans-serif;font-weight:normal;font-style:normal;font-stretch:normal;font-variant:normal"
           x="81.425774"
           y="99.167442">DATA HANDLING</tspan></text></g><g
       id="g15051"
       transform="translate(0,-17.999108)"><rect
         style="fill:#2aba32;fill-opacity:1;stroke:none;stroke-width:0.264999;stroke-miterlimit:5"
         id="rect14392"
         width="96.721222"
         height="13.261836"
         x="50.50491"
         y="137.03523"
         ry="5.6017499" /><text
         xml:space="preserve"
         style="font-style:normal;font-size:4.23333px;line-height:1.25;font-family:sans-serif;-inkscape-font-specification:sans-serif;letter-spacing:0px;word-spacing:0px;stroke-width:0.264583;font-weight:normal;font-stretch:normal;font-variant:normal"
         x="86.507629"
         y="145.20714"
         id="text14408"><tspan
           sodipodi:role="line"
           id="tspan14406"
           style="stroke-width:0.264583;-inkscape-font-specification:sans-serif;font-family:sans-serif;font-weight:normal;font-style:normal;font-stretch:normal;font-variant:normal"
           x="86.507629"
           y="145.20714">CALLBACKS</tspan></text></g><path
       style="fill:none;fill-rule:evenodd;stroke:#000000;stroke-width:0.264583px;stroke-linecap:butt;stroke-linejoin:miter;stroke-opacity:1"
       d="m 232.91076,124.10475 v 0"
       id="path14457"
       inkscape:connector-type="orthogonal"
       inkscape:connector-curvature="0"
       inkscape:connection-start="#g11930"
       inkscape:connection-end="#g11930" /><rect
       style="fill:#2fc937;fill-opacity:7.83883e-06;stroke:none;stroke-width:0.264999;stroke-miterlimit:5"
       id="rect14782"
       width="24.110779"
       height="28.100538"
       x="202.925"
       y="56.056564"
       ry="5.6017499" /><rect
       style="fill:#2fc937;fill-opacity:0;stroke:none;stroke-width:0.264999;stroke-miterlimit:5"
       id="rect14856"
       width="24.110779"
       height="28.100538"
       x="-37.445816"
       y="111.61678"
       ry="5.6017499" /><g
       id="g15085"><g
         id="g14870"
         transform="translate(-65.940289,162.66696)"><rect
           style="fill:#2aba32;fill-opacity:1;stroke:none;stroke-width:0.264999;stroke-miterlimit:5"
           id="rect14858"
           width="96.721222"
           height="13.261836"
           x="116.4452"
           y="-25.110765"
           ry="5.6017499" /></g><text
         xml:space="preserve"
         style="font-style:normal;font-size:4.23333px;line-height:1.25;font-family:sans-serif;-inkscape-font-specification:sans-serif;letter-spacing:0px;word-spacing:0px;stroke-width:0.264583;font-weight:normal;font-stretch:normal;font-variant:normal"
         x="80.983421"
         y="145.7281"
         id="text14862"><tspan
           sodipodi:role="line"
           id="tspan14860"
           style="stroke-width:0.264583;-inkscape-font-specification:sans-serif;font-family:sans-serif;font-weight:normal;font-style:normal;font-stretch:normal;font-variant:normal"
           x="80.983421"
           y="145.7281">PREPROCESSING</tspan></text></g><g
       id="g11930"
       transform="translate(216.51891,64.515754)"><g
         id="g11921"
         transform="matrix(1.1643645,0,0,1.1643645,-2.6942393,-10.754227)"><g
           id="g11711"
           transform="translate(-68.630545,-96.865181)"><g
             transform="matrix(0.51388798,0,0,0.51367413,78.650189,146.83273)"
             id="g11705"
             style="stroke-width:0.744943;stroke-linecap:butt;stroke-linejoin:round"><circle
               id="circle11703"
               r="1.6"
               cy="7.0999999"
               cx="16.700001"
               class="st0"
               style="fill:#ee4c2c;stroke-width:0.744943;stroke-linecap:butt;stroke-linejoin:round" /></g></g><path
           id="path11701"
           d="m 20.811292,54.693351 -1.130554,1.130083 c 1.849997,1.849227 1.849997,4.828537 0,6.626396 -1.849997,1.849227 -4.830547,1.849227 -6.629155,0 -1.849997,-1.849227 -1.849997,-4.828537 0,-6.626396 v 0 l 2.929162,-2.927943 0.41111,-0.410939 v 0 -2.208799 l -4.419437,4.417598 c -2.466662,2.465636 -2.466662,6.420926 0,8.886562 2.466663,2.465636 6.4236,2.465636 8.838874,0 2.466662,-2.465636 2.466662,-6.420926 0,-8.886562 z"
           class="st0"
           inkscape:connector-curvature="0"
           style="fill:#ee4c2c;stroke-width:0.382738;stroke-linecap:butt;stroke-linejoin:round" /></g><text
         xml:space="preserve"
         style="font-style:normal;font-size:4.23333px;line-height:1.25;font-family:sans-serif;-inkscape-font-specification:sans-serif;letter-spacing:0px;word-spacing:0px;stroke-width:0.264583;font-weight:normal;font-stretch:normal;font-variant:normal"
         x="8.2776279"
         y="70.512344"
         id="text11715"><tspan
           sodipodi:role="line"
           id="tspan11713"
           style="stroke-width:0.264583;-inkscape-font-specification:sans-serif;font-family:sans-serif;font-weight:normal;font-style:normal;font-stretch:normal;font-variant:normal"
           x="8.2776279"
           y="70.512344">PyTorch</tspan></text></g><g
       id="g11645"
       transform="translate(199.43912,-54.904513)"><g
         id="g14435"
         transform="translate(-0.4463375,30.430926)"><g
           transform="matrix(0.21910608,0,0,0.21910608,-97.260926,28.983)"
           id="layer1-67"
           inkscape:label="Calque 1"
           style="stroke-linecap:butt;stroke-linejoin:round"><g
             transform="translate(428.42338,184.2561)"
             id="g1894"
             style="stroke-linecap:butt;stroke-linejoin:round"><path
               id="path8615"
               d="M 99.75,67.46875 C 71.718268,67.468752 73.46875,79.625 73.46875,79.625 L 73.5,92.21875 h 26.75 V 96 H 62.875 c 0,0 -17.9375,-2.034276 -17.9375,26.25 -2e-6,28.28427 15.65625,27.28125 15.65625,27.28125 h 9.34375 v -13.125 c 0,0 -0.503652,-15.65625 15.40625,-15.65625 15.9099,0 26.53125,0 26.53125,0 0,0 14.90625,0.24096 14.90625,-14.40625 0,-14.647206 0,-24.21875 0,-24.21875 0,-2e-6 2.26318,-14.65625 -27.03125,-14.65625 z M 85,75.9375 c 2.661429,-2e-6 4.8125,2.151071 4.8125,4.8125 2e-6,2.661429 -2.151071,4.8125 -4.8125,4.8125 -2.661429,2e-6 -4.8125,-2.151071 -4.8125,-4.8125 -2e-6,-2.661429 2.151071,-4.8125 4.8125,-4.8125 z"
               style="color:#000000;display:inline;overflow:visible;visibility:visible;opacity:1;fill:url(#linearGradient9521);fill-opacity:1;fill-rule:nonzero;stroke:none;stroke-width:1;stroke-linecap:butt;stroke-linejoin:miter;stroke-miterlimit:4;stroke-dasharray:none;stroke-dashoffset:0;stroke-opacity:1;marker:none;marker-start:none;marker-mid:none;marker-end:none"
               inkscape:connector-curvature="0" /><path
               style="color:#000000;display:inline;overflow:visible;visibility:visible;opacity:1;fill:url(#linearGradient11307);fill-opacity:1;fill-rule:nonzero;stroke:none;stroke-width:1;stroke-linecap:butt;stroke-linejoin:miter;stroke-miterlimit:4;stroke-dasharray:none;stroke-dashoffset:0;stroke-opacity:1;marker:none;marker-start:none;marker-mid:none;marker-end:none"
               d="m 100.5461,177.31485 c 28.03174,0 26.28125,-12.15625 26.28125,-12.15625 l -0.0312,-12.59375 h -26.75 v -3.78125 h 37.375 c 0,0 17.9375,2.03427 17.9375,-26.25001 10e-6,-28.284267 -15.65625,-27.281247 -15.65625,-27.281247 h -9.34375 v 13.124997 c 0,0 0.50366,15.65625 -15.40625,15.65625 -15.909902,0 -26.531252,0 -26.531252,0 0,0 -14.90625,-0.24096 -14.90625,14.40626 0,14.6472 0,24.21875 0,24.21875 0,0 -2.26318,14.65625 27.031252,14.65625 z m 14.75,-8.46875 c -2.66143,0 -4.8125,-2.15107 -4.8125,-4.8125 0,-2.66143 2.15107,-4.8125 4.8125,-4.8125 2.66143,0 4.8125,2.15107 4.8125,4.8125 1e-5,2.66143 -2.15107,4.8125 -4.8125,4.8125 z"
               id="path8620"
               inkscape:connector-curvature="0" /></g></g><text
           xml:space="preserve"
           style="font-style:italic;font-size:4.23333px;line-height:1.25;font-family:sans-serif;-inkscape-font-specification:'sans-serif Italic';letter-spacing:0px;word-spacing:0px;stroke-width:0.264583"
           x="12.796577"
           y="113.19166"
           id="text1363"><tspan
             sodipodi:role="line"
             style="stroke-width:0.264583"
             x="12.796577"
             y="113.19166"
             id="tspan1365">other</tspan></text></g></g><g
       id="g11912"
       transform="matrix(0.11279443,0,0,0.11279443,-45.115193,115.27352)"><g
         id="g3"
         transform="translate(-120.60861,-220.26017)">
	<path
   d="m 333.32,347.348 c 33.869,-33.867 39.498,-83.146 12.572,-110.07 -26.922,-26.921 -76.199,-21.293 -110.066,12.572 -33.867,33.866 -24.07,98.568 -12.57,110.07 9.293,9.293 76.199,21.293 110.064,-12.572 z"
   id="path5"
   inkscape:connector-curvature="0"
   style="fill:#f89939" />
	<path
   d="m 194.35,298.411 c -19.648,-19.648 -48.242,-22.919 -63.867,-7.295 -15.621,15.622 -12.355,44.22 7.297,63.865 19.652,19.654 57.195,13.969 63.863,7.295 5.396,-5.387 12.361,-44.215 -7.293,-63.865 z"
   id="path7"
   inkscape:connector-curvature="0"
   style="fill:#3499cd" />
</g><g
         id="g9"
         transform="translate(-120.60861,-220.26017)">
	<g
   id="g11">
		<path
   d="m 262.143,339.047 c -3.471,3.195 -6.516,5.553 -9.133,7.068 -2.617,1.52 -5.113,2.279 -7.488,2.279 -2.732,0 -4.936,-1.059 -6.607,-3.178 -1.674,-2.121 -2.508,-4.965 -2.508,-8.543 0,-5.361 1.162,-11.797 3.486,-19.301 2.32,-7.51 5.145,-14.43 8.463,-20.761 l 9.729,-3.602 c 0.305,-0.102 0.537,-0.154 0.691,-0.154 0.738,0 1.348,0.544 1.816,1.627 0.473,1.088 0.711,2.55 0.711,4.388 0,5.209 -1.199,10.252 -3.602,15.129 -2.402,4.879 -6.154,10.086 -11.26,15.627 -0.205,2.656 -0.307,4.48 -0.307,5.477 0,2.223 0.408,3.982 1.225,5.285 0.818,1.305 1.902,1.953 3.256,1.953 1.381,0 2.848,-0.494 4.406,-1.49 1.555,-0.998 3.93,-3.064 7.121,-6.207 v 4.403 z m -14.668,-14.973 c 3.242,-3.605 5.875,-7.648 7.891,-12.121 2.016,-4.475 3.023,-8.324 3.023,-11.549 0,-0.94 -0.139,-1.704 -0.418,-2.278 -0.281,-0.575 -0.641,-0.864 -1.074,-0.864 -0.941,0 -2.316,2.352 -4.117,7.057 -1.801,4.704 -3.569,11.29 -5.305,19.755 z"
   id="path13"
   inkscape:connector-curvature="0"
   style="fill:#010101" />
		<path
   d="m 290.795,339.047 c -3.242,3.195 -6.152,5.553 -8.732,7.068 -2.58,1.52 -5.424,2.279 -8.541,2.279 -3.473,0 -6.275,-1.111 -8.41,-3.33 -2.131,-2.225 -3.195,-5.146 -3.195,-8.773 0,-5.412 1.875,-10.309 5.633,-14.688 3.75,-4.381 7.914,-6.57 12.484,-6.57 2.375,0 4.275,0.615 5.707,1.84 1.43,1.227 2.145,2.834 2.145,4.826 0,5.287 -5.617,9.574 -16.852,12.869 1.02,4.977 3.688,7.469 8.004,7.469 1.686,0 3.293,-0.453 4.824,-1.357 1.535,-0.908 3.844,-2.922 6.934,-6.035 v 4.402 z m -20.07,-7.084 c 6.535,-1.84 9.805,-5.234 9.805,-10.188 0,-2.451 -0.895,-3.676 -2.68,-3.676 -1.686,0 -3.293,1.281 -4.824,3.85 -1.536,2.565 -2.301,5.901 -2.301,10.014 z"
   id="path15"
   inkscape:connector-curvature="0"
   style="fill:#010101" />
		<path
   d="m 331.701,339.047 c -4.086,3.881 -7.01,6.412 -8.77,7.588 -1.762,1.174 -3.447,1.76 -5.057,1.76 -4.035,0 -5.936,-3.561 -5.707,-10.686 -2.553,3.65 -4.91,6.344 -7.068,8.084 -2.156,1.736 -4.383,2.602 -6.684,2.602 -2.244,0 -4.152,-1.051 -5.725,-3.158 -1.573,-2.107 -2.354,-4.691 -2.354,-7.758 0,-3.828 1.051,-7.48 3.156,-10.955 2.109,-3.473 4.809,-6.279 8.102,-8.424 3.293,-2.145 6.207,-3.219 8.732,-3.219 3.193,0 5.428,1.469 6.705,4.404 l 7.828,-4.326 h 2.148 l -3.381,11.221 c -1.736,5.645 -2.607,9.514 -2.607,11.607 0,2.195 0.777,3.293 2.336,3.293 0.992,0 2.09,-0.529 3.291,-1.59 1.201,-1.061 2.883,-2.676 5.053,-4.846 v 4.403 z m -28.037,2.109 c 2.553,0 4.959,-2.176 7.223,-6.529 2.26,-4.355 3.389,-8.373 3.389,-12.049 0,-1.428 -0.322,-2.547 -0.957,-3.35 -0.641,-0.807 -1.496,-1.207 -2.566,-1.207 -2.555,0 -4.977,2.17 -7.258,6.512 -2.285,4.342 -3.43,8.338 -3.43,11.986 0,1.381 0.34,2.498 1.016,3.354 0.676,0.856 1.534,1.283 2.583,1.283 z"
   id="path17"
   inkscape:connector-curvature="0"
   style="fill:#010101" />
		<path
   d="m 360.314,339.047 c -6.41,6.281 -11.352,9.424 -14.824,9.424 -1.559,0 -2.875,-0.658 -3.945,-1.969 -1.07,-1.316 -1.609,-2.945 -1.609,-4.887 0,-3.6 1.93,-8.424 5.785,-14.477 -1.891,0.971 -3.957,1.645 -6.205,2.029 -1.66,3.064 -4.266,6.359 -7.814,9.879 h -0.879 v -3.443 c 1.99,-2.068 3.791,-4.291 5.4,-6.666 -2.199,-0.971 -3.295,-2.414 -3.295,-4.326 0,-1.969 0.668,-4.068 2.012,-6.305 1.34,-2.232 3.184,-3.348 5.535,-3.348 1.992,0 2.986,1.018 2.986,3.062 0,1.609 -0.574,3.906 -1.725,6.895 4.238,-0.461 7.941,-3.701 11.109,-9.729 l 3.484,-0.154 -3.562,9.805 c -1.48,4.137 -2.438,6.955 -2.871,8.447 -0.433,1.492 -0.652,2.816 -0.652,3.963 0,1.074 0.25,1.932 0.746,2.566 0.498,0.643 1.17,0.959 2.012,0.959 0.918,0 1.801,-0.314 2.643,-0.936 0.842,-0.631 2.732,-2.359 5.67,-5.193 v 4.404 z"
   id="path19"
   inkscape:connector-curvature="0"
   style="fill:#010101" />
		<path
   d="m 397.928,339.047 c -5.898,6.234 -10.957,9.348 -15.168,9.348 -1.711,0 -3.09,-0.6 -4.137,-1.801 -1.049,-1.199 -1.572,-2.807 -1.572,-4.824 0,-2.732 1.125,-6.908 3.373,-12.523 1.199,-3.014 1.801,-4.932 1.801,-5.746 0,-0.818 -0.322,-1.227 -0.957,-1.227 -0.357,0 -0.832,0.18 -1.418,0.535 -0.539,0.357 -1.164,0.859 -1.879,1.496 -0.637,0.586 -1.354,1.301 -2.145,2.141 -0.691,0.721 -1.432,1.537 -2.219,2.453 l -2.148,2.492 c -0.943,1.148 -1.531,2.359 -1.76,3.637 -0.385,2.17 -0.639,4.164 -0.768,5.979 -0.078,1.35 -0.115,3.174 -0.115,5.477 l -8.465,1.988 c -0.279,-3.447 -0.422,-6.014 -0.422,-7.697 0,-4.111 0.479,-8.006 1.438,-11.682 0.957,-3.68 2.494,-7.814 4.615,-12.412 l 9.344,-1.799 c -1.965,5.287 -3.254,9.447 -3.867,12.484 4.188,-4.672 7.508,-7.906 9.969,-9.709 2.457,-1.801 4.645,-2.697 6.557,-2.697 1.299,0 2.385,0.49 3.25,1.471 0.869,0.982 1.301,2.215 1.301,3.689 0,2.449 -1.098,6.484 -3.291,12.104 -1.508,3.854 -2.262,6.355 -2.262,7.51 0,1.537 0.627,2.305 1.881,2.305 1.867,0 4.891,-2.465 9.064,-7.393 z"
   id="path21"
   inkscape:connector-curvature="0"
   style="fill:#010101" />
	</g>
</g><text
         font-size="23.0795"
         id="text25"
         style="font-size:23.0795px;line-height:0%;font-family:Helvetica;fill:#ffffff"
         x="153.33279"
         y="81.945938">scikit</text></g><path
       style="display:inline;fill:none;fill-rule:evenodd;stroke:#000000;stroke-width:0.5;stroke-linecap:butt;stroke-linejoin:miter;stroke-dasharray:none;stroke-opacity:1;marker-end:url(#marker14884)"
       d="M -15.400065,112.86788 45.856867,34.388401"
       id="path14878"
       inkscape:connector-type="polyline"
       inkscape:connector-curvature="0"
       inkscape:connection-start="#rect14856" /><path
       style="fill:none;fill-rule:evenodd;stroke:#000000;stroke-width:0.5;stroke-linecap:butt;stroke-linejoin:miter;stroke-dasharray:none;stroke-opacity:1;marker-end:url(#marker14884)"
       d="m -13.335037,125.66705 63.839947,0"
       id="path14880"
       inkscape:connector-type="polyline"
       inkscape:connector-curvature="0"
       inkscape:connection-end="#rect14392"
       inkscape:connection-start="#rect14856" /><rect
       style="fill:#2fc937;fill-opacity:0.00589665;stroke:none;stroke-width:0.264999;stroke-miterlimit:5"
       id="rect14962"
       width="24.110779"
       height="28.100538"
       x="0.69338655"
       y="93.096703"
       ry="5.6017499" /><g
       id="g11804"
       transform="translate(-138.51575,8.5158573)"><g
         id="g11785"
         transform="translate(8.9943903,-35.535001)"><g
           style="fill:none;stroke-linecap:butt;stroke-linejoin:round"
           id="g11779"
           transform="matrix(0.09311281,0,0,0.09311281,130.68401,117.92217)"><path
             d="m 230.721,172.7 c -0.538,-2.027 -1.408,-3.95 -2.575,-5.692 0.25,-0.917 0.441,-1.849 0.568,-2.791 0.829,-5.976 -1.243,-11.447 -5.147,-15.68 -2.115,-2.312 -4.382,-3.839 -6.783,-4.776 1.576,-6.743 2.373,-13.644 2.377,-20.568 0,-3.163 -0.179,-6.261 -0.479,-9.313 -0.156,-1.524 -0.345,-3.044 -0.567,-4.56 -0.687,-4.473 -1.707,-8.889 -3.051,-13.21 -0.881,-2.8393 -1.9,-5.634 -3.054,-8.374 -1.729,-4.0578 -3.748,-7.986 -6.041,-11.754 -1.504,-2.507 -3.142,-4.9312 -4.907,-7.262 -0.865,-1.177 -1.766,-2.3262 -2.704,-3.446 -2.778,-3.376 -5.797,-6.5463 -9.033,-9.486 -1.075,-0.9883 -2.18,-1.9427 -3.315,-2.862 -1.117,-0.9317 -2.259,-1.8333 -3.424,-2.704 -2.345,-1.7454 -4.768,-3.3828 -7.262,-4.907 -13.781,-8.37 -29.942,-13.17 -47.215,-13.17 -50.292,0 -91.052,40.762 -91.052,91.051 -0.002,7.012 0.81,14 2.42,20.824 -2.16,0.938 -4.23,2.4 -6.15,4.515 -3.903,4.231 -5.976,9.682 -5.147,15.658 0.126,0.949 0.315,1.889 0.567,2.813 -1.1659,1.743 -2.0353,3.667 -2.573,5.694 -1.2,4.561 -0.805,8.674 0.72,12.278 -1.658,4.71 -1.244,9.726 0.915,14.087 1.57,3.185 3.817,5.649 6.587,7.851 3.293,2.618 7.415,4.842 12.387,6.976 5.932,2.53 13.173,4.907 16.466,5.779 8.506,2.202 16.662,3.598 24.928,3.666 11.777,0.109 21.919,-2.66 29.18,-9.747 3.567,0.437 7.158,0.656 10.752,0.654 3.797,-0.008 7.59,-0.247 11.358,-0.715 7.244,7.132 17.425,9.926 29.245,9.814 8.265,-0.066 16.421,-1.462 24.905,-3.667 3.315,-0.872 10.553,-3.249 16.488,-5.779 4.972,-2.137 9.094,-4.361 12.409,-6.975 2.749,-2.203 4.994,-4.666 6.565,-7.851 2.181,-4.362 2.573,-9.378 0.938,-14.088 1.51,-3.604 1.903,-7.726 0.704,-12.283 z m -8.44,11.973 c 1.671,3.171 1.778,6.754 0.304,10.091 -2.236,5.057 -7.79,9.041 -18.577,13.318 -6.708,2.66 -12.85,4.361 -12.904,4.376 -8.872,2.301 -16.896,3.47 -23.842,3.47 -11.502,0 -20.061,-3.174 -25.489,-9.442 -9.179,1.564 -18.551,1.617 -27.747,0.158 -5.435,6.164 -13.945,9.284 -25.35,9.284 -6.947,0 -14.97,-1.169 -23.843,-3.47 -0.054,-0.015 -6.194,-1.716 -12.904,-4.376 -10.786,-4.277 -16.342,-8.258 -18.577,-13.318 -1.474,-3.337 -1.367,-6.92 0.304,-10.091 0.154,-0.295 0.32,-0.582 0.497,-0.86 -1.0014,-1.504 -1.6731,-3.203 -1.971,-4.986 -0.2978,-1.782 -0.215,-3.607 0.243,-5.355 0.664,-2.523 2.035,-4.621 3.897,-6.128 -0.897,-1.474 -1.4855,-3.114 -1.73,-4.822 -0.536,-3.714 0.697,-7.422 3.47,-10.446 2.16,-2.353 5.213,-3.648 8.593,-3.648 h 0.09 c -2.5485,-8.169 -3.8406,-16.678 -3.832,-25.235 0,-46.671 37.836,-84.51 84.514,-84.51 46.677,0 84.513,37.835 84.513,84.51 0.007,8.58 -1.294,17.111 -3.859,25.299 0.408,-0.04 0.808,-0.06 1.201,-0.061 3.38,0 6.434,1.295 8.592,3.648 2.773,3.021 4.007,6.732 3.47,10.446 -0.244,1.708 -0.833,3.348 -1.729,4.822 1.862,1.507 3.234,3.605 3.897,6.128 0.458,1.748 0.541,3.573 0.243,5.356 -0.297,1.782 -0.969,3.481 -1.971,4.985 0.177,0.275 0.345,0.562 0.497,0.857 z"
             fill="#ffffff"
             id="path11767"
             style="stroke-linecap:butt;stroke-linejoin:round" /><path
             d="m 221.784,183.816 c 1.002,-1.504 1.674,-3.203 1.972,-4.985 0.297,-1.783 0.214,-3.608 -0.244,-5.356 -0.664,-2.523 -2.036,-4.621 -3.897,-6.128 0.897,-1.474 1.485,-3.114 1.729,-4.822 0.537,-3.714 -0.696,-7.422 -3.47,-10.446 -2.158,-2.353 -5.212,-3.648 -8.592,-3.648 -0.393,0 -0.793,0.021 -1.201,0.061 2.562,-8.188 3.861,-16.718 3.852,-25.297 0,-46.6719 -37.836,-84.5099 -84.509,-84.5099 -46.674,0 -84.5141,37.834 -84.5141,84.5099 -0.0084,8.557 1.2837,17.066 3.8321,25.235 h -0.0901 c -3.38,0 -6.4329,1.294 -8.5919,3.647 -2.773,3.021 -4.0071,6.733 -3.4701,10.446 0.2447,1.708 0.8332,3.349 1.73,4.823 -1.862,1.506 -3.2339,3.604 -3.8979,6.127 -0.4578,1.749 -0.5403,3.574 -0.2421,5.357 0.2982,1.782 0.9702,3.482 1.972,4.986 -0.178,0.278 -0.342,0.565 -0.497,0.86 -1.67,3.171 -1.7779,6.754 -0.3029,10.091 2.236,5.057 7.7899,9.041 18.5769,13.318 6.707,2.66 12.8501,4.361 12.9041,4.376 8.872,2.301 16.896,3.47 23.842,3.47 11.406,0 19.916,-3.12 25.351,-9.284 9.196,1.459 18.568,1.405 27.747,-0.158 5.428,6.268 13.987,9.442 25.489,9.442 6.946,0 14.97,-1.169 23.841,-3.47 0.055,-0.015 6.195,-1.716 12.905,-4.376 10.787,-4.277 16.342,-8.261 18.577,-13.318 1.474,-3.337 1.367,-6.92 -0.304,-10.091 -0.152,-0.297 -0.32,-0.585 -0.497,-0.86 z m -111.647,13.181 c -0.468,0.818 -0.969,1.617 -1.502,2.394 -1.405,2.057 -3.253,3.629 -5.398,4.797 -4.1001,2.236 -9.29,3.017 -14.562,3.017 -8.329,0 -16.867,-1.949 -21.652,-3.19 -0.236,-0.061 -29.334,-8.28 -25.65,-15.276 0.62,-1.177 1.6399,-1.647 2.9249,-1.647 5.187,0 14.632,7.724 18.691,7.724 0.907,0 1.547,-0.386 1.808,-1.328 1.73,-6.204 -26.293,-8.812 -23.933,-17.796 0.416,-1.59 1.5461,-2.236 3.1341,-2.236 6.858,-10e-4 22.25,12.06 25.469,12.06 0.247,0 0.4239,-0.073 0.5199,-0.225 0.014,-0.023 0.0281,-0.045 0.0411,-0.069 1.511,-2.495 0.6439,-4.309 -9.7071,-10.649 l -0.994,-0.605 c -11.391,-6.894 -19.386,-11.043 -14.839,-15.993 0.523,-0.571 1.265,-0.824 2.166,-0.824 1.068,0 2.361,0.357 3.785,0.957 6.016,2.537 14.3541,9.456 17.8371,12.473 0.5479,0.476 1.0923,0.957 1.6329,1.441 0,0 4.4101,4.586 7.0761,4.586 0.614,0 1.1349,-0.242 1.4879,-0.84 1.8911,-3.188 -17.563,-17.93 -18.66,-24.013 -0.744,-4.121 0.522,-6.209 2.862,-6.209 1.113,0 2.471,0.474 3.97,1.425 4.65,2.951 13.628,18.379 16.915,24.381 1.102,2.011 2.983,2.861 4.678,2.861 3.363,0 5.992,-3.343 0.308,-7.591 -8.543,-6.392 -5.5449,-16.84 -1.4679,-17.483 0.174,-0.028 0.3499,-0.042 0.5249,-0.042 3.708,0 5.343,6.389 5.343,6.389 0,0 4.794,12.038 13.0291,20.267 7.472,7.469 8.516,13.598 4.162,21.244 z m 26.629,1.41 -0.427,0.051 -0.728,0.083 c -0.383,0.04 -0.767,0.078 -1.152,0.113 l -0.375,0.034 -0.343,0.029 -0.486,0.039 -0.537,0.039 -0.536,0.035 -0.119,0.008 c -0.14,0.008 -0.28,0.017 -0.422,0.024 l -0.179,0.01 c -0.166,0.009 -0.332,0.017 -0.5,0.024 l -0.581,0.025 -0.527,0.018 -0.352,0.01 h -0.179 c -0.11,0 -0.219,0.006 -0.329,0.007 h -0.174 c -0.11,0 -0.219,0 -0.329,0.005 l -0.448,0.006 h -0.625 c -0.491,0 -0.981,-0.005 -1.469,-0.015 l -0.396,-0.009 c -0.113,0 -0.226,-0.005 -0.337,-0.009 l -0.42,-0.012 -0.521,-0.02 -0.47,-0.021 -0.121,-0.005 -0.447,-0.023 c -0.125,-0.007 -0.248,-0.013 -0.372,-0.022 l -0.289,-0.017 c -0.363,-0.023 -0.726,-0.048 -1.089,-0.076 l -0.38,-0.031 c -0.16,-0.012 -0.32,-0.027 -0.479,-0.041 -0.187,-0.016 -0.374,-0.034 -0.561,-0.052 -0.313,-0.029 -0.626,-0.061 -0.939,-0.095 h -0.015 c 4.57,-10.195 2.259,-19.717 -6.976,-28.944 -6.057,-6.049 -10.086,-14.981 -10.922,-16.942 -1.6921,-5.805 -6.17,-12.258 -13.607,-12.258 -0.629,0 -1.257,0.05 -1.878,0.148 -3.258,0.513 -6.106,2.388 -8.138,5.21 -2.196,-2.731 -4.33,-4.902 -6.26,-6.128 -2.91,-1.845 -5.8141,-2.781 -8.6431,-2.781 -3.531,0 -6.687,1.45 -8.887,4.08 l -0.056,0.067 c -0.042,-0.173 -0.082,-0.346 -0.123,-0.52 l -0.005,-0.023 c -0.4187,-1.79 -0.7702,-3.595 -1.054,-5.412 0,-0.012 0,-0.024 -0.006,-0.036 -0.022,-0.137 -0.042,-0.275 -0.063,-0.412 -0.0615,-0.406 -0.1192,-0.813 -0.173,-1.22 -0.024,-0.185 -0.05,-0.37 -0.073,-0.555 l -0.068,-0.555 c -0.022,-0.185 -0.04,-0.353 -0.06,-0.529 l -0.0059,-0.044 c -0.0799,-0.72 -0.1499,-1.44 -0.2101,-2.162 l -0.022,-0.277 -0.035,-0.472 c -0.01,-0.129 -0.02,-0.259 -0.027,-0.389 0,-0.031 -0.005,-0.061 -0.006,-0.09 -0.0254,-0.362 -0.0471,-0.725 -0.065,-1.088 -0.01,-0.189 -0.02,-0.377 -0.028,-0.567 l -0.02,-0.496 -0.005,-0.15 -0.016,-0.457 -0.01,-0.389 c 0,-0.155 -0.008,-0.31 -0.01,-0.465 -0.003,-0.155 -0.007,-0.325 -0.008,-0.489 -0.002,-0.164 0,-0.326 -0.005,-0.489 -0.004,-0.164 0,-0.327 0,-0.49 0,-41.8529 33.931,-75.7839 75.7881,-75.7839 41.856,0 75.786,33.93 75.786,75.7839 v 0.979 c 0,0.163 -0.005,0.327 -0.008,0.489 0,0.135 -0.006,0.268 -0.01,0.405 0,0.12 -0.005,0.241 -0.009,0.357 0,0.153 -0.009,0.306 -0.014,0.459 v 0.012 l -0.021,0.531 c -0.007,0.155 -0.013,0.311 -0.021,0.466 l -0.005,0.11 -0.027,0.496 c -0.059,1.063 -0.14,2.124 -0.241,3.184 v 0.013 c -0.017,0.174 -0.034,0.348 -0.053,0.522 l -0.045,0.411 -0.089,0.804 -0.051,0.407 -0.063,0.479 c -0.023,0.174 -0.046,0.349 -0.072,0.522 -0.026,0.195 -0.055,0.389 -0.084,0.583 l -0.069,0.459 -0.082,0.52 c -0.028,0.173 -0.058,0.345 -0.09,0.517 -0.033,0.173 -0.059,0.345 -0.089,0.517 -0.06,0.344 -0.123,0.688 -0.189,1.031 -0.101,0.513 -0.204,1.025 -0.31,1.537 l -0.11,0.507 c -0.036,0.169 -0.075,0.339 -0.113,0.508 -2.133,-2.073 -4.958,-3.202 -8.073,-3.202 -2.827,0 -5.734,0.935 -8.643,2.78 -1.93,1.226 -4.063,3.398 -6.26,6.128 -2.035,-2.822 -4.883,-4.697 -8.139,-5.21 -0.621,-0.098 -1.249,-0.148 -1.878,-0.148 -7.439,0 -11.914,6.453 -13.607,12.258 -0.84,1.961 -4.87,10.893 -10.932,16.951 -9.229,9.198 -11.557,18.677 -7.059,28.83 z m 78.241,-20.409 -0.03,0.089 c -0.076,0.201 -0.164,0.397 -0.263,0.587 -0.075,0.14 -0.156,0.276 -0.244,0.408 -0.167,0.249 -0.35,0.487 -0.549,0.711 -0.046,0.052 -0.09,0.104 -0.142,0.155 -0.072,0.077 -0.145,0.153 -0.22,0.227 -1.346,1.334 -3.398,2.504 -5.718,3.577 -0.263,0.119 -0.53,0.238 -0.799,0.358 l -0.268,0.119 c -0.179,0.079 -0.358,0.157 -0.546,0.234 -0.179,0.078 -0.365,0.156 -0.551,0.232 l -0.558,0.23 c -1.305,0.537 -2.642,1.049 -3.946,1.554 l -0.558,0.217 -0.551,0.216 c -0.367,0.143 -0.729,0.286 -1.085,0.429 l -0.531,0.214 -0.522,0.213 -0.256,0.108 c -0.171,0.071 -0.338,0.142 -0.505,0.213 -3.837,1.647 -6.598,3.322 -6.018,5.4 0.016,0.059 0.034,0.115 0.054,0.17 0.052,0.154 0.123,0.299 0.212,0.436 0.052,0.081 0.112,0.158 0.179,0.228 0.682,0.709 1.923,0.597 3.488,0.034 0.22,-0.081 0.439,-0.165 0.656,-0.253 l 0.136,-0.056 c 0.358,-0.152 0.737,-0.322 1.124,-0.506 0.097,-0.046 0.195,-0.09 0.293,-0.141 1.914,-0.936 4.083,-2.196 6.235,-3.343 0.861,-0.465 1.734,-0.906 2.618,-1.325 2.038,-0.959 3.954,-1.639 5.494,-1.639 0.723,0 1.361,0.148 1.893,0.488 l 0.089,0.059 c 0.334,0.235 0.614,0.537 0.823,0.887 0.041,0.067 0.081,0.138 0.12,0.211 0.761,1.445 0.124,2.941 -1.367,4.408 -1.431,1.409 -3.657,2.79 -6.187,4.068 -0.188,0.095 -0.376,0.19 -0.567,0.283 -7.53,3.698 -17.391,6.483 -17.528,6.518 -2.628,0.681 -6.386,1.575 -10.62,2.244 l -0.626,0.098 -0.103,0.015 c -0.474,0.072 -0.949,0.139 -1.425,0.201 -0.483,0.065 -0.971,0.124 -1.462,0.179 l -0.09,0.01 c -1.78,0.205 -3.567,0.341 -5.358,0.406 h -0.026 c -0.648,0.023 -1.295,0.035 -1.943,0.035 h -0.747 c -0.988,-0.013 -1.974,-0.058 -2.959,-0.134 -0.023,0 -0.048,0 -0.071,-0.006 -0.353,-0.027 -0.705,-0.06 -1.057,-0.099 -0.365,-0.039 -0.729,-0.083 -1.092,-0.132 -0.239,-0.032 -0.477,-0.068 -0.715,-0.107 -0.242,-0.039 -0.484,-0.079 -0.725,-0.121 l -0.329,-0.062 -0.025,-0.005 c -0.347,-0.066 -0.692,-0.139 -1.036,-0.219 -0.2,-0.045 -0.399,-0.089 -0.596,-0.143 l -0.119,-0.03 c -0.098,-0.024 -0.193,-0.05 -0.29,-0.076 l -0.053,-0.014 -0.308,-0.09 c -0.112,-0.031 -0.224,-0.065 -0.336,-0.098 l -0.039,-0.011 -0.291,-0.089 c -0.11,-0.034 -0.22,-0.07 -0.329,-0.106 l -0.268,-0.089 -0.197,-0.069 c -0.19,-0.067 -0.379,-0.136 -0.566,-0.208 l -0.178,-0.07 -0.147,-0.058 c -0.284,-0.114 -0.566,-0.233 -0.845,-0.358 l -0.185,-0.09 -0.031,-0.014 c -0.066,-0.031 -0.131,-0.062 -0.197,-0.089 -0.129,-0.062 -0.257,-0.126 -0.384,-0.191 l -0.039,-0.019 -0.184,-0.097 c -0.327,-0.171 -0.647,-0.353 -0.961,-0.546 l -0.172,-0.106 c -0.086,-0.053 -0.172,-0.108 -0.256,-0.164 l -0.224,-0.148 -0.241,-0.166 -0.144,-0.103 c -0.152,-0.108 -0.301,-0.22 -0.447,-0.335 l -0.233,-0.179 c -0.093,-0.075 -0.185,-0.151 -0.276,-0.228 -0.077,-0.063 -0.152,-0.129 -0.227,-0.195 l -0.006,-0.005 c -0.081,-0.071 -0.16,-0.142 -0.239,-0.215 -0.078,-0.071 -0.156,-0.143 -0.232,-0.216 l -0.009,-0.009 c -0.08,-0.076 -0.158,-0.153 -0.235,-0.232 -0.077,-0.078 -0.156,-0.156 -0.231,-0.236 -0.075,-0.079 -0.152,-0.16 -0.226,-0.243 -0.074,-0.082 -0.142,-0.157 -0.212,-0.238 l -0.023,-0.027 c -0.068,-0.078 -0.135,-0.157 -0.201,-0.238 -0.143,-0.171 -0.282,-0.346 -0.416,-0.525 -0.135,-0.18 -0.267,-0.364 -0.396,-0.551 l -0.123,-0.184 c -0.164,-0.24 -0.324,-0.482 -0.479,-0.728 -0.116,-0.177 -0.229,-0.355 -0.339,-0.536 -0.071,-0.113 -0.139,-0.227 -0.207,-0.339 l -0.028,-0.046 c -0.065,-0.11 -0.129,-0.218 -0.191,-0.327 -0.036,-0.059 -0.07,-0.118 -0.102,-0.179 -0.033,-0.062 -0.071,-0.125 -0.106,-0.188 l -0.057,-0.099 -0.035,-0.064 c -0.067,-0.12 -0.133,-0.241 -0.197,-0.363 -0.03,-0.054 -0.059,-0.108 -0.09,-0.16 l -0.089,-0.173 -0.09,-0.171 c -0.225,-0.45 -0.438,-0.906 -0.638,-1.368 l -0.071,-0.169 c -0.046,-0.113 -0.089,-0.225 -0.135,-0.336 -0.022,-0.054 -0.044,-0.107 -0.063,-0.161 -0.107,-0.277 -0.207,-0.557 -0.299,-0.839 -0.033,-0.101 -0.065,-0.2 -0.095,-0.3 -0.072,-0.227 -0.137,-0.456 -0.195,-0.687 -0.071,-0.269 -0.134,-0.54 -0.187,-0.813 -0.011,-0.055 -0.022,-0.11 -0.031,-0.163 -0.052,-0.267 -0.094,-0.536 -0.127,-0.806 -0.008,-0.053 -0.014,-0.106 -0.02,-0.159 l -0.017,-0.162 c -0.022,-0.212 -0.039,-0.425 -0.049,-0.638 0,-0.054 -0.005,-0.108 -0.007,-0.16 -0.005,-0.106 -0.007,-0.212 -0.008,-0.318 -0.056,-4.273 2.106,-8.381 6.729,-13.002 8.235,-8.227 13.029,-20.266 13.029,-20.266 0,0 0.129,-0.505 0.397,-1.232 0.037,-0.101 0.076,-0.205 0.12,-0.314 0.156,-0.407 0.332,-0.807 0.527,-1.197 l 0.039,-0.075 c 0.166,-0.332 0.348,-0.656 0.544,-0.971 0.046,-0.073 0.09,-0.145 0.141,-0.218 0.147,-0.217 0.302,-0.429 0.465,-0.634 0.089,-0.111 0.186,-0.221 0.283,-0.328 0.039,-0.042 0.077,-0.084 0.118,-0.124 0.477,-0.493 1.022,-0.895 1.639,-1.109 l 0.078,-0.026 c 0.052,-0.017 0.104,-0.033 0.157,-0.048 0.061,-0.016 0.122,-0.03 0.185,-0.043 l 0.029,-0.006 c 0.13,-0.026 0.262,-0.043 0.395,-0.052 h 0.011 c 0.069,0 0.139,-0.007 0.21,-0.007 0.089,0 0.172,0 0.259,0.009 0.09,0.008 0.179,0.018 0.269,0.032 0.742,0.118 1.448,0.56 2.056,1.242 0.231,0.26 0.439,0.54 0.621,0.836 0.12,0.192 0.233,0.395 0.34,0.609 0.043,0.089 0.084,0.171 0.124,0.259 0.104,0.226 0.198,0.456 0.28,0.691 0.195,0.55 0.342,1.116 0.439,1.692 0.084,0.505 0.134,1.015 0.15,1.526 0.008,0.273 0.008,0.55 0,0.829 -0.054,1.298 -0.32,2.579 -0.787,3.792 -0.042,0.111 -0.089,0.223 -0.134,0.335 -0.092,0.226 -0.193,0.448 -0.302,0.665 -0.081,0.165 -0.166,0.331 -0.258,0.496 -0.06,0.11 -0.123,0.22 -0.186,0.33 -0.161,0.274 -0.335,0.546 -0.522,0.817 l -0.113,0.162 c -0.442,0.616 -0.934,1.194 -1.472,1.728 -0.53,0.531 -1.098,1.022 -1.699,1.47 -0.602,0.446 -1.167,0.94 -1.689,1.477 -1.503,1.577 -1.853,2.969 -1.515,4.024 0.054,0.166 0.125,0.327 0.211,0.479 0.101,0.174 0.221,0.334 0.357,0.48 l 0.053,0.055 0.054,0.054 c 0.054,0.052 0.111,0.103 0.172,0.153 l 0.06,0.048 c 0.145,0.112 0.299,0.212 0.46,0.3 0.047,0.025 0.089,0.05 0.142,0.074 0.174,0.085 0.353,0.158 0.537,0.217 0.051,0.017 0.102,0.032 0.154,0.048 l 0.065,0.017 0.09,0.024 0.077,0.019 0.084,0.018 0.083,0.017 0.079,0.013 c 0.058,0.01 0.118,0.02 0.178,0.027 l 0.057,0.009 0.104,0.01 0.064,0.007 0.105,0.007 h 0.062 l 0.11,0.006 h 0.346 l 0.099,-0.006 0.114,-0.007 0.139,-0.013 0.13,-0.015 c 0.03,0 0.06,-0.008 0.09,-0.014 0.4,-0.058 0.792,-0.164 1.167,-0.316 l 0.159,-0.067 c 0.089,-0.039 0.179,-0.08 0.261,-0.124 0.176,-0.088 0.347,-0.188 0.511,-0.297 0.229,-0.15 0.445,-0.318 0.647,-0.503 0.048,-0.043 0.095,-0.089 0.141,-0.133 0.023,-0.022 0.045,-0.043 0.067,-0.067 0.044,-0.045 0.089,-0.089 0.133,-0.138 0.32,-0.352 0.597,-0.74 0.825,-1.157 1.957,-3.559 4.008,-7.065 6.151,-10.514 l 0.294,-0.471 0.297,-0.471 c 0.148,-0.239 0.298,-0.474 0.447,-0.708 l 0.15,-0.234 c 0.498,-0.78 1.004,-1.555 1.519,-2.324 l 0.305,-0.456 c 0.612,-0.907 1.222,-1.789 1.827,-2.627 l 0.301,-0.415 c 0.658,-0.907 1.343,-1.795 2.054,-2.661 l 0.282,-0.338 c 0.047,-0.056 0.09,-0.112 0.141,-0.166 0.093,-0.11 0.186,-0.217 0.277,-0.321 0.046,-0.053 0.089,-0.105 0.138,-0.157 l 0.268,-0.302 0.134,-0.147 c 0.135,-0.145 0.267,-0.284 0.397,-0.417 0.09,-0.09 0.173,-0.179 0.259,-0.263 0.507,-0.518 1.066,-0.983 1.669,-1.386 l 0.14,-0.09 c 0.134,-0.09 0.273,-0.174 0.415,-0.25 2.364,-1.342 4.321,-1.441 5.448,-0.314 0.682,0.682 1.06,1.813 1.039,3.387 0,0.069 0,0.139 -0.005,0.211 v 0.077 c 0,0.072 -0.006,0.144 -0.012,0.217 0,0.09 -0.01,0.179 -0.019,0.269 -0.009,0.089 -0.014,0.157 -0.023,0.237 0,0.022 -0.004,0.045 -0.008,0.069 -0.006,0.069 -0.015,0.14 -0.025,0.211 0,0.021 0,0.043 -0.008,0.065 -0.011,0.095 -0.025,0.189 -0.041,0.283 -0.011,0.09 -0.026,0.174 -0.042,0.262 l -0.026,0.149 c -0.026,0.142 -0.059,0.282 -0.1,0.42 -0.078,0.259 -0.172,0.512 -0.283,0.758 -0.155,0.338 -0.326,0.667 -0.514,0.987 -0.104,0.178 -0.211,0.353 -0.322,0.526 -0.114,0.179 -0.234,0.36 -0.358,0.543 -0.316,0.452 -0.644,0.895 -0.985,1.328 l -0.156,0.197 c -0.556,0.693 -1.13,1.372 -1.722,2.035 l -0.187,0.21 c -0.252,0.281 -0.508,0.564 -0.77,0.848 l -0.197,0.214 c -0.131,0.143 -0.268,0.286 -0.4,0.43 -0.131,0.143 -0.268,0.288 -0.406,0.433 l -0.411,0.433 -0.417,0.436 -0.42,0.436 c -0.282,0.292 -0.565,0.584 -0.85,0.876 -4.055,4.159 -8.327,8.304 -9.773,10.888 -0.097,0.168 -0.184,0.342 -0.262,0.519 -0.206,0.47 -0.292,0.872 -0.233,1.197 0.019,0.107 0.056,0.209 0.111,0.303 0.081,0.141 0.18,0.271 0.295,0.387 0.053,0.052 0.109,0.1 0.168,0.144 0.298,0.212 0.657,0.321 1.023,0.311 h 0.114 l 0.117,-0.009 0.117,-0.013 0.097,-0.014 c 0.013,-0.002 0.027,-0.004 0.04,-0.008 l 0.089,-0.017 0.023,-0.005 0.099,-0.021 0.035,-0.009 c 0.035,-0.009 0.069,-0.018 0.104,-0.028 0.035,-0.01 0.083,-0.023 0.125,-0.037 0.176,-0.053 0.348,-0.116 0.517,-0.188 0.089,-0.036 0.176,-0.075 0.262,-0.117 0.045,-0.02 0.09,-0.041 0.132,-0.063 l 0.134,-0.066 c 0.32,-0.166 0.632,-0.347 0.936,-0.541 l 0.133,-0.09 c 0.045,-0.028 0.09,-0.057 0.133,-0.089 l 0.133,-0.089 0.071,-0.049 0.192,-0.135 c 0.179,-0.123 0.346,-0.25 0.515,-0.379 l 0.015,-0.012 0.269,-0.208 c 0.367,-0.29 0.715,-0.582 1.031,-0.857 l 0.21,-0.184 0.019,-0.018 0.11,-0.097 c 0.258,-0.232 0.488,-0.448 0.679,-0.626 l 0.079,-0.077 c 0.069,-0.065 0.132,-0.126 0.189,-0.178 l 0.112,-0.111 0.04,-0.039 0.011,-0.011 0.117,-0.117 0.074,-0.077 0.009,-0.007 0.035,-0.032 0.044,-0.04 0.014,-0.013 0.037,-0.034 0.204,-0.179 0.114,-0.102 c 0.061,-0.053 0.12,-0.107 0.179,-0.162 l 0.136,-0.121 c 0.025,-0.02 0.049,-0.042 0.074,-0.064 l 0.143,-0.125 0.21,-0.185 0.112,-0.097 c 0.435,-0.378 0.964,-0.835 1.572,-1.35 l 0.249,-0.211 0.411,-0.345 0.421,-0.351 c 0.55,-0.457 1.142,-0.942 1.768,-1.445 l 0.411,-0.33 c 0.35,-0.279 0.709,-0.563 1.073,-0.849 0.147,-0.115 0.296,-0.23 0.448,-0.344 0.372,-0.289 0.746,-0.576 1.123,-0.859 0.858,-0.648 1.743,-1.297 2.639,-1.929 l 0.384,-0.268 c 0.269,-0.185 0.537,-0.371 0.805,-0.552 l 0.243,-0.164 c 0.479,-0.325 0.965,-0.642 1.455,-0.951 l 0.243,-0.153 0.241,-0.15 c 0.242,-0.15 0.482,-0.297 0.721,-0.44 l 0.239,-0.143 0.478,-0.278 0.469,-0.269 0.095,-0.052 0.371,-0.204 c 0.155,-0.084 0.309,-0.165 0.463,-0.244 l 0.229,-0.118 0.223,-0.112 c 0.078,-0.037 0.155,-0.076 0.231,-0.113 0.502,-0.248 1.014,-0.476 1.534,-0.684 0.141,-0.06 0.281,-0.114 0.42,-0.161 l 0.41,-0.144 c 0.123,-0.041 0.243,-0.08 0.358,-0.115 l 0.04,-0.012 c 0.062,-0.02 0.124,-0.038 0.185,-0.054 l 0.018,-0.005 c 0.128,-0.037 0.255,-0.069 0.38,-0.099 h 0.009 c 0.354,-0.085 0.714,-0.146 1.077,-0.183 0.167,-0.017 0.334,-0.026 0.502,-0.025 h 0.084 c 0.112,0 0.22,0.007 0.327,0.018 0.049,0 0.098,0.01 0.146,0.016 h 0.02 c 0.048,0.006 0.096,0.013 0.144,0.024 0.047,0.009 0.095,0.017 0.141,0.028 h 0.015 c 0.047,0.01 0.089,0.022 0.138,0.036 0.254,0.071 0.496,0.181 0.718,0.325 0.109,0.071 0.211,0.151 0.305,0.24 l 0.027,0.026 c 0.018,0.016 0.035,0.033 0.051,0.05 l 0.049,0.053 c 0.402,0.421 0.734,0.904 0.984,1.43 l 0.038,0.09 c 0.085,0.2 0.152,0.407 0.2,0.618 0.142,0.646 0.087,1.32 -0.158,1.935 -0.093,0.248 -0.206,0.487 -0.339,0.715 -0.311,0.524 -0.68,1.011 -1.099,1.452 l -0.089,0.095 c -0.133,0.14 -0.271,0.28 -0.416,0.42 -0.064,0.063 -0.131,0.125 -0.198,0.188 l -0.205,0.189 -0.107,0.095 c -0.258,0.23 -0.523,0.453 -0.792,0.669 -0.163,0.132 -0.327,0.261 -0.493,0.388 -0.586,0.448 -1.183,0.88 -1.791,1.297 -0.367,0.252 -0.737,0.499 -1.11,0.743 -0.919,0.603 -1.848,1.191 -2.786,1.763 -1.968,1.21 -4.149,2.504 -6.474,3.911 l -0.602,0.365 c -0.659,0.402 -1.281,0.786 -1.867,1.152 l -0.295,0.185 -0.558,0.358 c -0.37,0.237 -0.739,0.476 -1.108,0.715 l -0.297,0.196 c -0.145,0.094 -0.289,0.19 -0.433,0.286 l -0.141,0.09 -0.432,0.291 -0.229,0.157 -0.268,0.186 -0.249,0.173 c -0.417,0.295 -0.805,0.576 -1.162,0.843 l -0.134,0.102 c -0.21,0.159 -0.418,0.321 -0.623,0.486 -0.309,0.249 -0.591,0.487 -0.844,0.716 l -0.124,0.113 c -0.071,0.065 -0.141,0.13 -0.208,0.194 -0.046,0.045 -0.089,0.09 -0.137,0.133 l -0.064,0.064 c -0.143,0.144 -0.283,0.291 -0.418,0.442 l -0.066,0.076 c -0.147,0.17 -0.275,0.333 -0.387,0.492 l -0.05,0.071 c -0.088,0.128 -0.169,0.26 -0.242,0.396 -0.019,0.034 -0.036,0.068 -0.053,0.102 l -0.049,0.102 -0.033,0.074 -0.021,0.05 -0.017,0.045 -0.023,0.061 c -0.062,0.169 -0.105,0.345 -0.13,0.523 l -0.008,0.062 -0.006,0.058 v 0.315 c 0,0.026 0,0.052 0.007,0.08 l 0.005,0.048 c 0,0.026 0.006,0.051 0.01,0.079 0.004,0.026 0.011,0.073 0.019,0.11 v 0.005 c 0.007,0.035 0.014,0.069 0.023,0.104 0.009,0.035 0.018,0.075 0.029,0.111 0.019,0.071 0.043,0.141 0.068,0.211 0.016,0.042 0.031,0.083 0.048,0.124 0,0.008 0.006,0.017 0.01,0.025 l 0.036,0.081 0.05,0.111 c 0.054,0.115 0.113,0.227 0.177,0.336 l 0.066,0.114 0.068,0.114 c 0.012,0.019 0.026,0.037 0.041,0.054 l 0.022,0.023 0.025,0.023 0.026,0.02 c 0.038,0.027 0.079,0.048 0.122,0.063 0.023,0.008 0.047,0.014 0.071,0.02 0.577,0.13 1.763,-0.347 3.339,-1.179 0.089,-0.048 0.187,-0.098 0.282,-0.15 l 0.48,-0.262 0.234,-0.13 c 0.167,-0.089 0.337,-0.19 0.511,-0.289 l 0.317,-0.179 c 2.083,-1.199 4.571,-2.739 7.143,-4.243 0.241,-0.141 0.483,-0.282 0.725,-0.421 l 0.486,-0.311 c 0.564,-0.323 1.131,-0.642 1.7,-0.957 0.717,-0.394 1.439,-0.778 2.168,-1.15 l 0.476,-0.241 c 0.316,-0.156 0.629,-0.308 0.938,-0.456 0.598,-0.284 1.203,-0.554 1.815,-0.809 l 0.335,-0.136 0.04,-0.016 c 1.775,-0.703 3.384,-1.137 4.686,-1.137 0.281,-0.003 0.563,0.021 0.84,0.069 h 0.009 c 0.089,0.016 0.17,0.034 0.253,0.054 h 0.015 c 0.213,0.054 0.42,0.131 0.616,0.23 0.275,0.142 0.522,0.331 0.731,0.559 0.096,0.106 0.181,0.221 0.256,0.343 0.14,0.215 0.25,0.448 0.329,0.692 0.032,0.095 0.06,0.188 0.089,0.287 0.211,0.757 0.19,1.56 -0.06,2.305 z"
             fill="#ff9d00"
             id="path11769"
             style="stroke-linecap:butt;stroke-linejoin:round" /><path
             fill-rule="evenodd"
             clip-rule="evenodd"
             d="m 203.21,123.685 v -0.491 c 0,-41.854 -33.918,-75.783 -75.775,-75.783 -41.8559,0 -75.787,33.931 -75.787,75.783 v 0.164 c -0.002,0.109 -0.003,0.218 0,0.327 0.0049,0.163 0.0066,0.326 0.005,0.489 l 0.0051,0.36 0.0029,0.129 c 0,0.06 0.0021,0.119 0.0041,0.179 0.003,0.095 0.0049,0.191 0.0049,0.286 l 0.011,0.389 0.016,0.457 0.005,0.15 0.02,0.473 v 0.023 c 0.008,0.185 0.0181,0.369 0.0271,0.553 l 9e-4,0.014 c 0.01,0.188 0.0201,0.377 0.0321,0.566 0.01,0.174 0.0199,0.348 0.0329,0.522 l 0.0021,0.031 c 0.0087,0.149 0.0187,0.299 0.0299,0.448 l 0.003,0.04 0.033,0.432 0.0031,0.028 c 0.006,0.084 0.0119,0.168 0.0199,0.249 0.0598,0.721 0.1295,1.442 0.2091,2.161 l 0.0049,0.045 0.061,0.529 0.0681,0.555 0.0499,0.377 0.023,0.177 c 0.0533,0.408 0.111,0.815 0.173,1.221 l 0.0041,0.027 0.0589,0.384 c 0.2855,1.829 0.6391,3.647 1.06,5.45 l 0.0051,0.022 0.0319,0.135 0.091,0.385 0.056,-0.067 c 2.2,-2.63 5.356,-4.08 8.887,-4.08 2.83,0 5.7331,0.936 8.6431,2.781 1.93,1.226 4.064,3.397 6.26,6.128 2.032,-2.822 4.88,-4.698 8.138,-5.21 0.6212,-0.098 1.2491,-0.147 1.878,-0.148 7.436,0 11.9149,6.453 13.6069,12.258 0.836,1.961 4.865,10.893 10.941,16.935 9.236,9.227 11.547,18.748 6.976,28.943 h 0.016 c 0.311,0.035 0.624,0.067 0.939,0.096 0.187,0.018 0.373,0.036 0.561,0.052 l 0.066,0.006 0.413,0.035 0.38,0.03 c 0.362,0.028 0.725,0.054 1.089,0.077 l 0.289,0.017 0.229,0.014 0.142,0.008 0.447,0.023 0.122,0.005 0.469,0.021 0.522,0.02 0.419,0.012 0.07,0.002 c 0.089,0.004 0.178,0.007 0.267,0.007 l 0.096,0.003 c 0.59,0.014 1.179,0.021 1.769,0.02 h 0.626 l 0.447,-0.005 c 0.11,-0.005 0.219,-0.005 0.33,-0.005 h 0.174 l 0.151,-0.004 c 0.059,-0.002 0.118,-0.004 0.178,-0.004 h 0.179 l 0.351,-0.009 0.528,-0.018 0.581,-0.026 c 0.168,-0.006 0.334,-0.015 0.5,-0.023 l 0.179,-0.011 0.266,-0.014 0.156,-0.009 0.118,-0.008 0.537,-0.035 0.536,-0.039 0.487,-0.039 0.342,-0.029 0.376,-0.034 c 0.628,-0.056 1.254,-0.122 1.88,-0.197 l 0.427,-0.051 c -4.499,-10.152 -2.17,-19.632 7.027,-28.822 6.063,-6.058 10.092,-14.99 10.932,-16.952 1.693,-5.804 6.169,-12.257 13.607,-12.257 0.629,0 1.258,0.05 1.879,0.148 3.255,0.512 6.103,2.388 8.138,5.21 2.197,-2.73 4.33,-4.903 6.261,-6.129 2.909,-1.844 5.815,-2.78 8.642,-2.78 3.116,0 5.94,1.13 8.073,3.203 0.039,-0.169 0.077,-0.338 0.114,-0.508 l 0.109,-0.506 c 0.039,-0.185 0.078,-0.37 0.115,-0.555 0.066,-0.327 0.132,-0.654 0.195,-0.984 0.066,-0.342 0.129,-0.686 0.189,-1.03 l 0.031,-0.186 c 0.019,-0.11 0.037,-0.22 0.058,-0.331 0.034,-0.172 0.062,-0.344 0.09,-0.518 l 0.011,-0.066 0.071,-0.453 0.07,-0.459 v -0.004 c 0.051,-0.339 0.099,-0.678 0.144,-1.017 l 0.011,-0.084 0.063,-0.478 0.051,-0.408 0.09,-0.804 0.035,-0.323 0.009,-0.088 c 0.019,-0.174 0.037,-0.348 0.053,-0.522 v -0.014 c 0.013,-0.138 0.027,-0.277 0.039,-0.416 0.071,-0.788 0.131,-1.58 0.179,-2.375 0.009,-0.13 0.016,-0.261 0.024,-0.392 v -0.006 l 0.026,-0.491 0.006,-0.11 c 0.016,-0.332 0.03,-0.664 0.041,-0.996 v -0.012 l 0.005,-0.13 c 0.005,-0.109 0.009,-0.219 0.009,-0.329 l 0.002,-0.044 c 0.004,-0.103 0.008,-0.209 0.008,-0.314 l 0.003,-0.09 c 0.003,-0.105 0.006,-0.209 0.006,-0.314 l 0.002,-0.089 c 0.003,-0.133 0.006,-0.267 0.006,-0.4 z m -94.572,75.706 c 6.002,-8.801 5.576,-15.407 -2.658,-23.637 -8.2359,-8.231 -13.029,-20.267 -13.029,-20.267 0,0 -1.7889,-6.991 -5.8689,-6.349 -4.08,0.642 -7.073,11.089 1.47,17.484 8.542,6.395 -1.7,10.731 -4.988,4.73 -3.288,-6.002 -12.2651,-21.429 -16.9191,-24.38 -4.654,-2.951 -7.927,-1.297 -6.83,4.785 0.545,3.019 5.6131,8.172 10.3481,12.986 4.804,4.884 9.2649,9.42 8.3109,11.025 -1.893,3.187 -8.5599,-3.745 -8.5599,-3.745 0,0 -20.8761,-18.998 -25.4201,-14.047 -4.19,4.563 2.271,8.442 12.2271,14.421 0.846,0.508 1.718,1.032 2.611,1.572 11.391,6.896 12.2769,8.715 10.6599,11.324 -0.597,0.964 -4.41,-1.325 -9.1,-4.14 -7.995,-4.801 -18.5369,-11.13 -20.0259,-5.465 -1.288,4.903 6.4679,7.907 13.5019,10.632 5.86,2.27 11.2201,4.346 10.4311,7.164 -0.817,2.922 -5.246,0.485 -10.087,-2.179 -5.435,-2.991 -11.39,-6.267 -13.339,-2.57 -3.683,6.99 25.41,15.219 25.65,15.28 9.4,2.438 33.2719,7.604 41.6149,-4.624 z m 38.665,0 c -6.002,-8.801 -5.576,-15.407 2.659,-23.637 8.235,-8.231 13.028,-20.267 13.028,-20.267 0,0 1.789,-6.991 5.869,-6.349 4.08,0.642 7.073,11.089 -1.469,17.484 -8.543,6.395 1.699,10.731 4.987,4.73 3.289,-6.002 12.26,-21.429 16.914,-24.38 4.654,-2.951 7.929,-1.297 6.831,4.785 -0.544,3.019 -5.613,8.172 -10.348,12.987 -4.804,4.884 -9.265,9.419 -8.312,11.024 1.893,3.187 8.565,-3.749 8.565,-3.749 0,0 20.875,-18.997 25.421,-14.046 4.189,4.562 -2.272,8.442 -12.229,14.421 -0.871,0.523 -1.741,1.047 -2.61,1.572 -11.391,6.896 -12.277,8.715 -10.661,11.323 0.598,0.965 4.411,-1.325 9.1,-4.14 7.996,-4.8 18.538,-11.13 20.027,-5.464 1.289,4.903 -6.468,7.907 -13.502,10.632 -5.86,2.27 -11.22,4.346 -10.432,7.164 0.816,2.921 5.244,0.484 10.084,-2.18 5.435,-2.991 11.391,-6.269 13.339,-2.569 3.684,6.994 -25.414,15.215 -25.649,15.275 -9.4,2.446 -33.272,7.612 -41.612,-4.616 z"
             fill="#ffd21e"
             id="path11771"
             style="stroke-linecap:butt;stroke-linejoin:round" /><path
             fill-rule="evenodd"
             clip-rule="evenodd"
             d="m 152.047,102.567 c 1.182,0.418 2.061,1.69 2.897,2.901 1.13,1.636 2.182,3.159 3.796,2.301 1.904,-1.013 3.465,-2.567 4.485,-4.467 1.021,-1.9 1.456,-4.0593 1.25,-6.206 -0.154,-1.6052 -0.662,-3.1562 -1.488,-4.5412 -0.826,-1.3851 -1.949,-2.5698 -3.287,-3.4686 -1.339,-0.8988 -2.861,-1.4894 -4.455,-1.7293 -1.595,-0.2399 -3.223,-0.123 -4.767,0.3421 -1.544,0.4649 -2.965,1.2663 -4.162,2.3465 -1.197,1.0802 -2.14,2.4123 -2.76,3.9005 -0.62,1.4882 -0.903,3.0955 -0.828,4.706 0.076,1.611 0.507,3.184 1.264,4.608 0.748,1.407 2.408,0.743 4.16,0.042 1.373,-0.549 2.804,-1.121 3.895,-0.735 z m -51.375,0 c -1.182,0.418 -2.061,1.691 -2.897,2.901 -1.13,1.637 -2.183,3.159 -3.796,2.301 -2.3945,-1.268 -4.2308,-3.383 -5.1512,-5.931 -0.9203,-2.5485 -0.8586,-5.3484 0.173,-7.8539 1.0316,-2.5055 2.9593,-4.537 5.4072,-5.6986 2.448,-1.1616 5.2408,-1.3699 7.834,-0.5845 2.065,0.6218 3.899,1.8417 5.271,3.5055 1.372,1.6639 2.219,3.697 2.436,5.8425 0.216,2.1455 -0.209,4.307 -1.221,6.211 -0.749,1.407 -2.409,0.743 -4.161,0.043 -1.374,-0.55 -2.803,-1.122 -3.895,-0.736 z m 43.427,46.751 c 8.143,-6.415 11.134,-16.889 11.134,-23.341 0,-5.1 -3.431,-3.495 -8.924,-0.775 l -0.31,0.153 c -5.042,2.497 -11.754,5.822 -19.122,5.822 -7.369,0 -14.081,-3.325 -19.122,-5.823 -5.671,-2.809 -9.228,-4.571 -9.228,0.624 0,6.656 3.182,17.585 11.916,23.934 1.153,-2.339 2.776,-4.415 4.768,-6.099 1.991,-1.684 4.309,-2.939 6.807,-3.687 0.872,-0.26 1.77,1.241 2.689,2.778 0.887,1.482 1.794,2.998 2.716,2.998 0.983,0 1.948,-1.494 2.891,-2.952 0.985,-1.525 1.946,-3.01 2.875,-2.713 4.675,1.501 8.586,4.756 10.91,9.081 z"
             fill="#32343d"
             id="path11773"
             style="stroke-linecap:butt;stroke-linejoin:round" /><path
             d="m 144.097,149.317 c -4.241,3.342 -9.878,5.583 -17.219,5.583 -6.897,0 -12.291,-1.978 -16.435,-4.989 1.153,-2.339 2.776,-4.416 4.768,-6.099 1.991,-1.684 4.309,-2.939 6.807,-3.687 1.712,-0.511 3.527,5.776 5.405,5.776 2.01,0 3.947,-6.246 5.766,-5.665 4.674,1.502 8.584,4.757 10.908,9.081 z"
             fill="#ff323d"
             id="path11775"
             style="stroke-linecap:butt;stroke-linejoin:round" /><path
             fill-rule="evenodd"
             clip-rule="evenodd"
             d="m 81.2,111.64 c -0.9688,0.648 -2.0827,1.047 -3.2428,1.161 -1.1601,0.115 -2.3305,-0.059 -3.4072,-0.506 -0.8607,-0.355 -1.6428,-0.877 -2.3012,-1.536 -0.6585,-0.658 -1.1804,-1.44 -1.5358,-2.301 -0.446,-1.077 -0.6195,-2.247 -0.5048,-3.407 0.1146,-1.16 0.5137,-2.274 1.1618,-3.243 0.7788,-1.166 1.8858,-2.0747 3.1812,-2.6113 1.2954,-0.5366 2.7208,-0.677 4.0959,-0.4032 1.3752,0.2737 2.6382,0.9492 3.6293,1.9405 0.9911,0.992 1.6658,2.256 1.9386,3.631 0.2733,1.375 0.1327,2.8 -0.4037,4.095 -0.5365,1.295 -1.4459,2.401 -2.6113,3.18 z m 101.413,0 c -0.969,0.648 -2.083,1.047 -3.243,1.161 -1.161,0.115 -2.331,-0.059 -3.408,-0.506 -0.861,-0.356 -1.643,-0.877 -2.301,-1.536 -0.658,-0.658 -1.18,-1.44 -1.536,-2.301 -0.445,-1.077 -0.618,-2.247 -0.504,-3.407 0.115,-1.16 0.514,-2.274 1.161,-3.243 0.582,-0.872 1.351,-1.603 2.25,-2.1422 0.899,-0.5389 1.906,-0.8716 2.949,-0.9741 1.044,-0.1026 2.097,0.0276 3.083,0.3811 0.987,0.3536 1.883,0.9216 2.624,1.6632 0.992,0.991 1.667,2.254 1.94,3.629 0.274,1.375 0.133,2.8 -0.404,4.095 -0.537,1.295 -1.445,2.401 -2.611,3.18 z"
             fill="#ffad03"
             id="path11777"
             style="stroke-linecap:butt;stroke-linejoin:round" /></g></g><text
         xml:space="preserve"
         style="font-style:normal;font-variant:normal;font-weight:normal;font-stretch:normal;font-size:4.23333px;line-height:1.15;font-family:sans-serif;-inkscape-font-specification:sans-serif;text-align:center;letter-spacing:0px;word-spacing:0px;text-anchor:middle;stroke-width:0.264583"
         x="151.62305"
         y="107.06233"
         id="text11789"><tspan
           sodipodi:role="line"
           id="tspan11787"
           style="font-style:normal;font-variant:normal;font-weight:bold;font-stretch:normal;font-family:sans-serif;-inkscape-font-specification:'sans-serif Bold';text-align:center;text-anchor:middle;stroke-width:0.264583"
           x="151.62305"
           y="107.06233">Hugging</tspan><tspan
           sodipodi:role="line"
           style="font-style:normal;font-variant:normal;font-weight:bold;font-stretch:normal;font-family:sans-serif;-inkscape-font-specification:'sans-serif Bold';text-align:center;text-anchor:middle;stroke-width:0.264583"
           x="151.62305"
           y="111.93066"
           id="tspan11791">Face</tspan></text></g><path
       style="fill:none;fill-rule:evenodd;stroke:#000000;stroke-width:0.5;stroke-linecap:butt;stroke-linejoin:miter;stroke-dasharray:none;stroke-opacity:1;marker-end:url(#marker2488)"
       d="M 24.804165,101.96176 83.448919,76.737751"
       id="path14964"
       inkscape:connector-type="polyline"
       inkscape:connector-curvature="0"
       inkscape:connection-end="#g14423"
       inkscape:connection-start="#rect14962" /><path
       style="fill:none;fill-rule:evenodd;stroke:#000000;stroke-width:0.5;stroke-linecap:butt;stroke-linejoin:miter;stroke-dasharray:none;stroke-opacity:1;marker-end:url(#marker2488)"
       d="m 24.804165,107.14697 25.700745,0"
       id="path14966"
       inkscape:connector-type="polyline"
       inkscape:connector-curvature="0"
       inkscape:connection-end="#g14413"
       inkscape:connection-start="#rect14962" /><path
       style="fill:none;fill-rule:evenodd;stroke:#000000;stroke-width:0.5;stroke-linecap:butt;stroke-linejoin:miter;stroke-dasharray:none;stroke-opacity:1;marker-end:url(#marker2488)"
       d="m 24.804165,115.55793 31.530033,21.99826"
       id="path14968"
       inkscape:connector-type="polyline"
       inkscape:connector-curvature="0"
       inkscape:connection-start="#rect14962" /><text
       xml:space="preserve"
       style="font-style:normal;font-size:4.23333px;line-height:1.25;font-family:sans-serif;-inkscape-font-specification:sans-serif;letter-spacing:0px;word-spacing:0px;stroke-width:0.264583;font-weight:normal;font-stretch:normal;font-variant:normal"
       id="text15055"
       transform="translate(31.856089,4.4771669)"><textPath
         xlink:href="#path14880"
         id="textPath15057"><tspan
           id="tspan15053"
           style="stroke-width:0.264583;-inkscape-font-specification:sans-serif;font-family:sans-serif;font-weight:normal;font-style:normal;font-stretch:normal;font-variant:normal">metrics</tspan></textPath></text><text
       xml:space="preserve"
       style="font-style:normal;font-size:4.23333px;line-height:1.25;font-family:sans-serif;-inkscape-font-specification:sans-serif;letter-spacing:0px;word-spacing:0px;stroke-width:0.264583;font-weight:normal;font-stretch:normal;font-variant:normal"
       id="text15062"
       transform="translate(1.6153987,-2.2839912)"><textPath
         xlink:href="#path14964"
         id="textPath15066"><tspan
           id="tspan15060"
           style="stroke-width:0.264583;-inkscape-font-specification:sans-serif;font-family:sans-serif;font-weight:normal;font-style:normal;font-stretch:normal;font-variant:normal">transformers, </tspan><tspan
           style="stroke-width:0.264583;-inkscape-font-specification:sans-serif;font-family:sans-serif;font-weight:normal;font-style:normal;font-stretch:normal;font-variant:normal"
           id="tspan15064">PEFT</tspan></textPath></text><text
       xml:space="preserve"
       style="font-style:normal;font-size:4.23333px;line-height:1.25;font-family:sans-serif;-inkscape-font-specification:sans-serif;letter-spacing:0px;word-spacing:0px;stroke-width:0.264583;font-weight:normal;font-stretch:normal;font-variant:normal"
       id="text15072"
       transform="translate(0.29113167,-0.8951217)"><textPath
         xlink:href="#path14966"
         id="textPath15074"><tspan
           id="tspan15070"
           style="stroke-width:0.264583;-inkscape-font-specification:sans-serif;font-family:sans-serif;font-weight:normal;font-style:normal;font-stretch:normal;font-variant:normal">accelerate</tspan></textPath></text><text
       xml:space="preserve"
       style="font-style:normal;font-variant:normal;font-weight:normal;font-stretch:normal;font-size:4.23333px;line-height:1.25;font-family:sans-serif;-inkscape-font-specification:sans-serif;letter-spacing:0px;word-spacing:0px;stroke-width:0.264583"
       id="text15089"
       transform="translate(0.45214164,-2.7240668)"><textPath
         xlink:href="#path14968"
         id="textPath15091"><tspan
           id="tspan15087"
           style="font-style:normal;font-variant:normal;font-weight:normal;font-stretch:normal;font-family:sans-serif;-inkscape-font-specification:sans-serif;stroke-width:0.264583">tokenizers</tspan></textPath></text><path
       style="fill:none;fill-rule:evenodd;stroke:#000000;stroke-width:0.5;stroke-linecap:butt;stroke-linejoin:miter;stroke-dasharray:none;stroke-opacity:1;marker-end:url(#marker2488)"
       d="m -13.335037,127.46388 68.380171,10.19191"
       id="path15094"
       inkscape:connector-type="polyline"
       inkscape:connector-curvature="0"
       inkscape:connection-end="#g15085"
       inkscape:connection-start="#rect14856" /><text
       xml:space="preserve"
       style="font-style:normal;font-size:4.23333px;line-height:1.25;font-family:sans-serif;-inkscape-font-specification:sans-serif;letter-spacing:0px;word-spacing:0px;stroke-width:0.264583;font-weight:normal;font-stretch:normal;font-variant:normal"
       id="text15176"
       transform="translate(0.8385392,4.4567577)"><textPath
         xlink:href="#path15094"
         id="textPath15180"><tspan
           id="tspan15174"
           style="stroke-width:0.264583;-inkscape-font-specification:sans-serif;font-family:sans-serif;font-weight:normal;font-style:normal;font-stretch:normal;font-variant:normal">normalizers, imputers, etc.</tspan></textPath></text><text
       xml:space="preserve"
       style="font-style:normal;font-size:4.23333px;line-height:1.25;font-family:sans-serif;-inkscape-font-specification:sans-serif;letter-spacing:0px;word-spacing:0px;stroke-width:0.264583;font-weight:normal;font-stretch:normal;font-variant:normal"
       id="text15185"
       transform="translate(20.185125,5.0731093)"><textPath
         xlink:href="#path16018"
         id="textPath16026"><tspan
           id="tspan15183"
           style="stroke-width:0.264583;-inkscape-font-specification:sans-serif;font-family:sans-serif;font-weight:normal;font-style:normal;font-stretch:normal;font-variant:normal">LR schedulers</tspan></textPath></text><path
       style="fill:none;fill-rule:evenodd;stroke:#000000;stroke-width:0.5;stroke-linecap:butt;stroke-linejoin:miter;stroke-dasharray:none;stroke-opacity:1;marker-start:url(#marker14884)"
       d="m 147.22613,70.106833 55.69887,0"
       id="path15984"
       inkscape:connector-type="polyline"
       inkscape:connector-curvature="0"
       inkscape:connection-start="#g14423"
       inkscape:connection-end="#rect14782" /><path
       style="fill:none;fill-rule:evenodd;stroke:#000000;stroke-width:0.5;stroke-linecap:butt;stroke-linejoin:miter;stroke-dasharray:none;stroke-opacity:1;marker-start:url(#marker14884)"
       d="M 112.72343,119.03612 202.925,75.875259"
       id="path15986"
       inkscape:connector-type="polyline"
       inkscape:connector-curvature="0"
       inkscape:connection-start="#g15051"
       inkscape:connection-end="#rect14782" /><text
       xml:space="preserve"
       style="font-style:normal;font-size:4.23333px;line-height:1.25;font-family:sans-serif;-inkscape-font-specification:sans-serif;letter-spacing:0px;word-spacing:0px;stroke-width:0.264583;font-weight:normal;font-stretch:normal;font-variant:normal"
       id="text15996"
       transform="translate(34.859556,-1.9334143)"><textPath
         xlink:href="#path15984"
         id="textPath16000"><tspan
           id="tspan15994"
           style="stroke-width:0.264583;-inkscape-font-specification:sans-serif;font-family:sans-serif;font-weight:normal;font-style:normal;font-stretch:normal;font-variant:normal">GPyTorch</tspan></textPath></text><text
       xml:space="preserve"
       style="font-style:normal;font-size:4.23333px;line-height:1.25;font-family:sans-serif;-inkscape-font-specification:sans-serif;letter-spacing:0px;word-spacing:0px;stroke-width:0.264583;font-weight:normal;font-stretch:normal;font-variant:normal"
       id="text16005"
       transform="translate(61.343305,-30.784755)"><textPath
         xlink:href="#path15986"
         id="textPath16009"><tspan
           id="tspan16003"
           style="stroke-width:0.264583;-inkscape-font-specification:sans-serif;font-family:sans-serif;font-weight:normal;font-style:normal;font-stretch:normal;font-variant:normal">TensorBoard,</tspan></textPath></text><path
       style="fill:none;fill-rule:evenodd;stroke:#000000;stroke-width:0.5;stroke-linecap:butt;stroke-linejoin:miter;stroke-dasharray:none;stroke-opacity:1;marker-start:url(#marker14884)"
       d="M 115.14954,76.737751 223.25337,120.75805"
       id="path16012"
       inkscape:connector-type="polyline"
       inkscape:connector-curvature="0"
       inkscape:connection-start="#g14423"
       inkscape:connection-end="#rect14686" /><path
       style="fill:none;fill-rule:evenodd;stroke:#000000;stroke-width:0.5;stroke-linecap:butt;stroke-linejoin:miter;stroke-dasharray:none;stroke-opacity:1;marker-start:url(#marker14884)"
       d="m 123.29155,95.257821 99.96182,27.136559"
       id="path16014"
       inkscape:connector-type="polyline"
       inkscape:connector-curvature="0"
       inkscape:connection-start="#g14418"
       inkscape:connection-end="#rect14686" /><path
       style="fill:none;fill-rule:evenodd;stroke:#000000;stroke-width:0.5;stroke-linecap:butt;stroke-linejoin:miter;stroke-dasharray:none;stroke-opacity:1;marker-start:url(#marker14884)"
       d="m 143.96811,113.26896 79.28526,10.76176"
       id="path16016"
       inkscape:connector-type="polyline"
       inkscape:connector-curvature="0"
       inkscape:connection-start="#g14413"
       inkscape:connection-end="#rect14686" /><path
       style="fill:none;fill-rule:evenodd;stroke:#000000;stroke-width:0.5;stroke-linecap:butt;stroke-linejoin:miter;stroke-dasharray:none;stroke-opacity:1;marker-start:url(#marker14884)"
       d="m 147.22613,125.66705 76.02724,0"
       id="path16018"
       inkscape:connector-type="polyline"
       inkscape:connector-curvature="0"
       inkscape:connection-start="#g15051"
       inkscape:connection-end="#rect14686" /><text
       xml:space="preserve"
       style="font-style:normal;font-size:4.23333px;line-height:1.25;font-family:sans-serif;-inkscape-font-specification:sans-serif;letter-spacing:0px;word-spacing:0px;stroke-width:0.264583;font-weight:normal;font-stretch:normal;font-variant:normal"
       id="text16031"
       transform="translate(23.238027,7.5039059)"><textPath
         xlink:href="#path16016"
         id="textPath16035"><tspan
           id="tspan16029"
           style="stroke-width:0.264583;-inkscape-font-specification:sans-serif;font-family:sans-serif;font-weight:normal;font-style:normal;font-stretch:normal;font-variant:normal">optimizers</tspan></textPath></text><text
       xml:space="preserve"
       style="font-style:normal;font-size:4.23333px;line-height:1.25;font-family:sans-serif;-inkscape-font-specification:sans-serif;letter-spacing:0px;word-spacing:0px;stroke-width:0.264583;font-weight:normal;font-stretch:normal;font-variant:normal"
       id="text16040"
       transform="translate(32.068993,12.722882)"><textPath
         xlink:href="#path16014"
         id="textPath16044"><tspan
           id="tspan16038"
           style="stroke-width:0.264583;-inkscape-font-specification:sans-serif;font-family:sans-serif;font-weight:normal;font-style:normal;font-stretch:normal;font-variant:normal">Dataset, DataLoader</tspan></textPath></text><text
       xml:space="preserve"
       style="font-style:normal;font-size:4.23333px;line-height:1.25;font-family:sans-serif;-inkscape-font-specification:sans-serif;letter-spacing:0px;word-spacing:0px;stroke-width:0.264583;font-weight:normal;font-stretch:normal;font-variant:normal"
       id="text16049"
       transform="translate(63.289774,24.17556)"><textPath
         xlink:href="#path16012"
         id="textPath16053"><tspan
           id="tspan16047"
           style="stroke-width:0.264583;-inkscape-font-specification:sans-serif;font-family:sans-serif;font-weight:normal;font-style:normal;font-stretch:normal;font-variant:normal">nn.Module</tspan></textPath></text><text
       xml:space="preserve"
       style="font-style:normal;font-size:4.23333px;line-height:1.25;font-family:sans-serif;-inkscape-font-specification:sans-serif;letter-spacing:0px;word-spacing:0px;stroke-width:0.264583;font-weight:normal;font-stretch:normal;font-variant:normal"
       id="text16339"
       transform="translate(63.894556,-25.576314)"><textPath
         xlink:href="#path15986"
         id="textPath16341"><tspan
           id="tspan16337"
           style="stroke-width:0.264583;-inkscape-font-specification:sans-serif;font-family:sans-serif;font-weight:normal;font-style:normal;font-stretch:normal;font-variant:normal">MLflow etc.</tspan></textPath></text><text
       xml:space="preserve"
       style="font-style:normal;font-size:4.23333px;line-height:1.25;font-family:sans-serif;-inkscape-font-specification:sans-serif;letter-spacing:0px;word-spacing:0px;stroke-width:0.264583;font-weight:normal;font-stretch:normal;font-variant:normal"
       x="50.64938"
       y="60.056431"
       id="text17010"><tspan
         sodipodi:role="line"
         id="tspan17008"
         style="stroke-width:0.264583;-inkscape-font-specification:sans-serif;font-family:sans-serif;font-weight:normal;font-style:normal;font-stretch:normal;font-variant:normal"
         x="50.64938"
         y="60.056431">NeuralNetClassifier, NeuralNetRegressor, etc.</tspan></text></g></svg>
